<?xml version="1.0" encoding="utf-8" standalone="no"?>
<!DOCTYPE svg PUBLIC "-//W3C//DTD SVG 1.1//EN"
  "http://www.w3.org/Graphics/SVG/1.1/DTD/svg11.dtd">
<svg xmlns:xlink="http://www.w3.org/1999/xlink" width="624.675313pt" height="415.335625pt" viewBox="0 0 624.675313 415.335625" xmlns="http://www.w3.org/2000/svg" version="1.1">
 <metadata>
  <rdf:RDF xmlns:dc="http://purl.org/dc/elements/1.1/" xmlns:cc="http://creativecommons.org/ns#" xmlns:rdf="http://www.w3.org/1999/02/22-rdf-syntax-ns#">
   <cc:Work>
    <dc:type rdf:resource="http://purl.org/dc/dcmitype/StillImage"/>
    <dc:date>2025-01-25T13:54:20.498126</dc:date>
    <dc:format>image/svg+xml</dc:format>
    <dc:creator>
     <cc:Agent>
      <dc:title>Matplotlib v3.9.3, https://matplotlib.org/</dc:title>
     </cc:Agent>
    </dc:creator>
   </cc:Work>
  </rdf:RDF>
 </metadata>
 <defs>
  <style type="text/css">*{stroke-linejoin: round; stroke-linecap: butt}</style>
 </defs>
 <g id="figure_1">
  <g id="patch_1">
   <path d="M 0 415.335625 
L 624.675313 415.335625 
L 624.675313 0 
L 0 0 
z
" style="fill: #ffffff"/>
  </g>
  <g id="axes_1">
   <g id="patch_2">
    <path d="M 51.52375 370.036875 
L 609.52375 370.036875 
L 609.52375 37.396875 
L 51.52375 37.396875 
z
" style="fill: #ffffff"/>
   </g>
   <g id="matplotlib.axis_1">
    <g id="xtick_1">
     <g id="line2d_1">
      <path d="M 51.52375 370.036875 
L 51.52375 37.396875 
" clip-path="url(#p653ceb8311)" style="fill: none; stroke-dasharray: 2.96,1.28; stroke-dashoffset: 0; stroke: #b0b0b0; stroke-opacity: 0.7; stroke-width: 0.8"/>
     </g>
     <g id="line2d_2">
      <defs>
       <path id="ma585d13941" d="M 0 0 
L 0 3.5 
" style="stroke: #000000; stroke-width: 0.8"/>
      </defs>
      <g>
       <use xlink:href="#ma585d13941" x="51.52375" y="370.036875" style="stroke: #000000; stroke-width: 0.8"/>
      </g>
     </g>
     <g id="text_1">
      <!-- 1.0 -->
      <g transform="translate(43.572188 384.635312) scale(0.1 -0.1)">
       <defs>
        <path id="DejaVuSans-31" d="M 794 531 
L 1825 531 
L 1825 4091 
L 703 3866 
L 703 4441 
L 1819 4666 
L 2450 4666 
L 2450 531 
L 3481 531 
L 3481 0 
L 794 0 
L 794 531 
z
" transform="scale(0.015625)"/>
        <path id="DejaVuSans-2e" d="M 684 794 
L 1344 794 
L 1344 0 
L 684 0 
L 684 794 
z
" transform="scale(0.015625)"/>
        <path id="DejaVuSans-30" d="M 2034 4250 
Q 1547 4250 1301 3770 
Q 1056 3291 1056 2328 
Q 1056 1369 1301 889 
Q 1547 409 2034 409 
Q 2525 409 2770 889 
Q 3016 1369 3016 2328 
Q 3016 3291 2770 3770 
Q 2525 4250 2034 4250 
z
M 2034 4750 
Q 2819 4750 3233 4129 
Q 3647 3509 3647 2328 
Q 3647 1150 3233 529 
Q 2819 -91 2034 -91 
Q 1250 -91 836 529 
Q 422 1150 422 2328 
Q 422 3509 836 4129 
Q 1250 4750 2034 4750 
z
" transform="scale(0.015625)"/>
       </defs>
       <use xlink:href="#DejaVuSans-31"/>
       <use xlink:href="#DejaVuSans-2e" x="63.623047"/>
       <use xlink:href="#DejaVuSans-30" x="95.410156"/>
      </g>
     </g>
    </g>
    <g id="xtick_2">
     <g id="line2d_3">
      <path d="M 121.27375 370.036875 
L 121.27375 37.396875 
" clip-path="url(#p653ceb8311)" style="fill: none; stroke-dasharray: 2.96,1.28; stroke-dashoffset: 0; stroke: #b0b0b0; stroke-opacity: 0.7; stroke-width: 0.8"/>
     </g>
     <g id="line2d_4">
      <g>
       <use xlink:href="#ma585d13941" x="121.27375" y="370.036875" style="stroke: #000000; stroke-width: 0.8"/>
      </g>
     </g>
     <g id="text_2">
      <!-- 1.5 -->
      <g transform="translate(113.322188 384.635312) scale(0.1 -0.1)">
       <defs>
        <path id="DejaVuSans-35" d="M 691 4666 
L 3169 4666 
L 3169 4134 
L 1269 4134 
L 1269 2991 
Q 1406 3038 1543 3061 
Q 1681 3084 1819 3084 
Q 2600 3084 3056 2656 
Q 3513 2228 3513 1497 
Q 3513 744 3044 326 
Q 2575 -91 1722 -91 
Q 1428 -91 1123 -41 
Q 819 9 494 109 
L 494 744 
Q 775 591 1075 516 
Q 1375 441 1709 441 
Q 2250 441 2565 725 
Q 2881 1009 2881 1497 
Q 2881 1984 2565 2268 
Q 2250 2553 1709 2553 
Q 1456 2553 1204 2497 
Q 953 2441 691 2322 
L 691 4666 
z
" transform="scale(0.015625)"/>
       </defs>
       <use xlink:href="#DejaVuSans-31"/>
       <use xlink:href="#DejaVuSans-2e" x="63.623047"/>
       <use xlink:href="#DejaVuSans-35" x="95.410156"/>
      </g>
     </g>
    </g>
    <g id="xtick_3">
     <g id="line2d_5">
      <path d="M 191.02375 370.036875 
L 191.02375 37.396875 
" clip-path="url(#p653ceb8311)" style="fill: none; stroke-dasharray: 2.96,1.28; stroke-dashoffset: 0; stroke: #b0b0b0; stroke-opacity: 0.7; stroke-width: 0.8"/>
     </g>
     <g id="line2d_6">
      <g>
       <use xlink:href="#ma585d13941" x="191.02375" y="370.036875" style="stroke: #000000; stroke-width: 0.8"/>
      </g>
     </g>
     <g id="text_3">
      <!-- 2.0 -->
      <g transform="translate(183.072188 384.635312) scale(0.1 -0.1)">
       <defs>
        <path id="DejaVuSans-32" d="M 1228 531 
L 3431 531 
L 3431 0 
L 469 0 
L 469 531 
Q 828 903 1448 1529 
Q 2069 2156 2228 2338 
Q 2531 2678 2651 2914 
Q 2772 3150 2772 3378 
Q 2772 3750 2511 3984 
Q 2250 4219 1831 4219 
Q 1534 4219 1204 4116 
Q 875 4013 500 3803 
L 500 4441 
Q 881 4594 1212 4672 
Q 1544 4750 1819 4750 
Q 2544 4750 2975 4387 
Q 3406 4025 3406 3419 
Q 3406 3131 3298 2873 
Q 3191 2616 2906 2266 
Q 2828 2175 2409 1742 
Q 1991 1309 1228 531 
z
" transform="scale(0.015625)"/>
       </defs>
       <use xlink:href="#DejaVuSans-32"/>
       <use xlink:href="#DejaVuSans-2e" x="63.623047"/>
       <use xlink:href="#DejaVuSans-30" x="95.410156"/>
      </g>
     </g>
    </g>
    <g id="xtick_4">
     <g id="line2d_7">
      <path d="M 260.77375 370.036875 
L 260.77375 37.396875 
" clip-path="url(#p653ceb8311)" style="fill: none; stroke-dasharray: 2.96,1.28; stroke-dashoffset: 0; stroke: #b0b0b0; stroke-opacity: 0.7; stroke-width: 0.8"/>
     </g>
     <g id="line2d_8">
      <g>
       <use xlink:href="#ma585d13941" x="260.77375" y="370.036875" style="stroke: #000000; stroke-width: 0.8"/>
      </g>
     </g>
     <g id="text_4">
      <!-- 2.5 -->
      <g transform="translate(252.822188 384.635312) scale(0.1 -0.1)">
       <use xlink:href="#DejaVuSans-32"/>
       <use xlink:href="#DejaVuSans-2e" x="63.623047"/>
       <use xlink:href="#DejaVuSans-35" x="95.410156"/>
      </g>
     </g>
    </g>
    <g id="xtick_5">
     <g id="line2d_9">
      <path d="M 330.52375 370.036875 
L 330.52375 37.396875 
" clip-path="url(#p653ceb8311)" style="fill: none; stroke-dasharray: 2.96,1.28; stroke-dashoffset: 0; stroke: #b0b0b0; stroke-opacity: 0.7; stroke-width: 0.8"/>
     </g>
     <g id="line2d_10">
      <g>
       <use xlink:href="#ma585d13941" x="330.52375" y="370.036875" style="stroke: #000000; stroke-width: 0.8"/>
      </g>
     </g>
     <g id="text_5">
      <!-- 3.0 -->
      <g transform="translate(322.572187 384.635312) scale(0.1 -0.1)">
       <defs>
        <path id="DejaVuSans-33" d="M 2597 2516 
Q 3050 2419 3304 2112 
Q 3559 1806 3559 1356 
Q 3559 666 3084 287 
Q 2609 -91 1734 -91 
Q 1441 -91 1130 -33 
Q 819 25 488 141 
L 488 750 
Q 750 597 1062 519 
Q 1375 441 1716 441 
Q 2309 441 2620 675 
Q 2931 909 2931 1356 
Q 2931 1769 2642 2001 
Q 2353 2234 1838 2234 
L 1294 2234 
L 1294 2753 
L 1863 2753 
Q 2328 2753 2575 2939 
Q 2822 3125 2822 3475 
Q 2822 3834 2567 4026 
Q 2313 4219 1838 4219 
Q 1578 4219 1281 4162 
Q 984 4106 628 3988 
L 628 4550 
Q 988 4650 1302 4700 
Q 1616 4750 1894 4750 
Q 2613 4750 3031 4423 
Q 3450 4097 3450 3541 
Q 3450 3153 3228 2886 
Q 3006 2619 2597 2516 
z
" transform="scale(0.015625)"/>
       </defs>
       <use xlink:href="#DejaVuSans-33"/>
       <use xlink:href="#DejaVuSans-2e" x="63.623047"/>
       <use xlink:href="#DejaVuSans-30" x="95.410156"/>
      </g>
     </g>
    </g>
    <g id="xtick_6">
     <g id="line2d_11">
      <path d="M 400.27375 370.036875 
L 400.27375 37.396875 
" clip-path="url(#p653ceb8311)" style="fill: none; stroke-dasharray: 2.96,1.28; stroke-dashoffset: 0; stroke: #b0b0b0; stroke-opacity: 0.7; stroke-width: 0.8"/>
     </g>
     <g id="line2d_12">
      <g>
       <use xlink:href="#ma585d13941" x="400.27375" y="370.036875" style="stroke: #000000; stroke-width: 0.8"/>
      </g>
     </g>
     <g id="text_6">
      <!-- 3.5 -->
      <g transform="translate(392.322187 384.635312) scale(0.1 -0.1)">
       <use xlink:href="#DejaVuSans-33"/>
       <use xlink:href="#DejaVuSans-2e" x="63.623047"/>
       <use xlink:href="#DejaVuSans-35" x="95.410156"/>
      </g>
     </g>
    </g>
    <g id="xtick_7">
     <g id="line2d_13">
      <path d="M 470.02375 370.036875 
L 470.02375 37.396875 
" clip-path="url(#p653ceb8311)" style="fill: none; stroke-dasharray: 2.96,1.28; stroke-dashoffset: 0; stroke: #b0b0b0; stroke-opacity: 0.7; stroke-width: 0.8"/>
     </g>
     <g id="line2d_14">
      <g>
       <use xlink:href="#ma585d13941" x="470.02375" y="370.036875" style="stroke: #000000; stroke-width: 0.8"/>
      </g>
     </g>
     <g id="text_7">
      <!-- 4.0 -->
      <g transform="translate(462.072187 384.635312) scale(0.1 -0.1)">
       <defs>
        <path id="DejaVuSans-34" d="M 2419 4116 
L 825 1625 
L 2419 1625 
L 2419 4116 
z
M 2253 4666 
L 3047 4666 
L 3047 1625 
L 3713 1625 
L 3713 1100 
L 3047 1100 
L 3047 0 
L 2419 0 
L 2419 1100 
L 313 1100 
L 313 1709 
L 2253 4666 
z
" transform="scale(0.015625)"/>
       </defs>
       <use xlink:href="#DejaVuSans-34"/>
       <use xlink:href="#DejaVuSans-2e" x="63.623047"/>
       <use xlink:href="#DejaVuSans-30" x="95.410156"/>
      </g>
     </g>
    </g>
    <g id="xtick_8">
     <g id="line2d_15">
      <path d="M 539.77375 370.036875 
L 539.77375 37.396875 
" clip-path="url(#p653ceb8311)" style="fill: none; stroke-dasharray: 2.96,1.28; stroke-dashoffset: 0; stroke: #b0b0b0; stroke-opacity: 0.7; stroke-width: 0.8"/>
     </g>
     <g id="line2d_16">
      <g>
       <use xlink:href="#ma585d13941" x="539.77375" y="370.036875" style="stroke: #000000; stroke-width: 0.8"/>
      </g>
     </g>
     <g id="text_8">
      <!-- 4.5 -->
      <g transform="translate(531.822188 384.635312) scale(0.1 -0.1)">
       <use xlink:href="#DejaVuSans-34"/>
       <use xlink:href="#DejaVuSans-2e" x="63.623047"/>
       <use xlink:href="#DejaVuSans-35" x="95.410156"/>
      </g>
     </g>
    </g>
    <g id="xtick_9">
     <g id="line2d_17">
      <path d="M 609.52375 370.036875 
L 609.52375 37.396875 
" clip-path="url(#p653ceb8311)" style="fill: none; stroke-dasharray: 2.96,1.28; stroke-dashoffset: 0; stroke: #b0b0b0; stroke-opacity: 0.7; stroke-width: 0.8"/>
     </g>
     <g id="line2d_18">
      <g>
       <use xlink:href="#ma585d13941" x="609.52375" y="370.036875" style="stroke: #000000; stroke-width: 0.8"/>
      </g>
     </g>
     <g id="text_9">
      <!-- 5.0 -->
      <g transform="translate(601.572188 384.635312) scale(0.1 -0.1)">
       <use xlink:href="#DejaVuSans-35"/>
       <use xlink:href="#DejaVuSans-2e" x="63.623047"/>
       <use xlink:href="#DejaVuSans-30" x="95.410156"/>
      </g>
     </g>
    </g>
    <g id="text_10">
     <!-- ViSQOL Score -->
     <g transform="translate(269.107188 404.392187) scale(0.18 -0.18)">
      <defs>
       <path id="DejaVuSans-56" d="M 1831 0 
L 50 4666 
L 709 4666 
L 2188 738 
L 3669 4666 
L 4325 4666 
L 2547 0 
L 1831 0 
z
" transform="scale(0.015625)"/>
       <path id="DejaVuSans-69" d="M 603 3500 
L 1178 3500 
L 1178 0 
L 603 0 
L 603 3500 
z
M 603 4863 
L 1178 4863 
L 1178 4134 
L 603 4134 
L 603 4863 
z
" transform="scale(0.015625)"/>
       <path id="DejaVuSans-53" d="M 3425 4513 
L 3425 3897 
Q 3066 4069 2747 4153 
Q 2428 4238 2131 4238 
Q 1616 4238 1336 4038 
Q 1056 3838 1056 3469 
Q 1056 3159 1242 3001 
Q 1428 2844 1947 2747 
L 2328 2669 
Q 3034 2534 3370 2195 
Q 3706 1856 3706 1288 
Q 3706 609 3251 259 
Q 2797 -91 1919 -91 
Q 1588 -91 1214 -16 
Q 841 59 441 206 
L 441 856 
Q 825 641 1194 531 
Q 1563 422 1919 422 
Q 2459 422 2753 634 
Q 3047 847 3047 1241 
Q 3047 1584 2836 1778 
Q 2625 1972 2144 2069 
L 1759 2144 
Q 1053 2284 737 2584 
Q 422 2884 422 3419 
Q 422 4038 858 4394 
Q 1294 4750 2059 4750 
Q 2388 4750 2728 4690 
Q 3069 4631 3425 4513 
z
" transform="scale(0.015625)"/>
       <path id="DejaVuSans-51" d="M 2522 4238 
Q 1834 4238 1429 3725 
Q 1025 3213 1025 2328 
Q 1025 1447 1429 934 
Q 1834 422 2522 422 
Q 3209 422 3611 934 
Q 4013 1447 4013 2328 
Q 4013 3213 3611 3725 
Q 3209 4238 2522 4238 
z
M 3406 84 
L 4238 -825 
L 3475 -825 
L 2784 -78 
Q 2681 -84 2626 -87 
Q 2572 -91 2522 -91 
Q 1538 -91 948 567 
Q 359 1225 359 2328 
Q 359 3434 948 4092 
Q 1538 4750 2522 4750 
Q 3503 4750 4090 4092 
Q 4678 3434 4678 2328 
Q 4678 1516 4351 937 
Q 4025 359 3406 84 
z
" transform="scale(0.015625)"/>
       <path id="DejaVuSans-4f" d="M 2522 4238 
Q 1834 4238 1429 3725 
Q 1025 3213 1025 2328 
Q 1025 1447 1429 934 
Q 1834 422 2522 422 
Q 3209 422 3611 934 
Q 4013 1447 4013 2328 
Q 4013 3213 3611 3725 
Q 3209 4238 2522 4238 
z
M 2522 4750 
Q 3503 4750 4090 4092 
Q 4678 3434 4678 2328 
Q 4678 1225 4090 567 
Q 3503 -91 2522 -91 
Q 1538 -91 948 565 
Q 359 1222 359 2328 
Q 359 3434 948 4092 
Q 1538 4750 2522 4750 
z
" transform="scale(0.015625)"/>
       <path id="DejaVuSans-4c" d="M 628 4666 
L 1259 4666 
L 1259 531 
L 3531 531 
L 3531 0 
L 628 0 
L 628 4666 
z
" transform="scale(0.015625)"/>
       <path id="DejaVuSans-20" transform="scale(0.015625)"/>
       <path id="DejaVuSans-63" d="M 3122 3366 
L 3122 2828 
Q 2878 2963 2633 3030 
Q 2388 3097 2138 3097 
Q 1578 3097 1268 2742 
Q 959 2388 959 1747 
Q 959 1106 1268 751 
Q 1578 397 2138 397 
Q 2388 397 2633 464 
Q 2878 531 3122 666 
L 3122 134 
Q 2881 22 2623 -34 
Q 2366 -91 2075 -91 
Q 1284 -91 818 406 
Q 353 903 353 1747 
Q 353 2603 823 3093 
Q 1294 3584 2113 3584 
Q 2378 3584 2631 3529 
Q 2884 3475 3122 3366 
z
" transform="scale(0.015625)"/>
       <path id="DejaVuSans-6f" d="M 1959 3097 
Q 1497 3097 1228 2736 
Q 959 2375 959 1747 
Q 959 1119 1226 758 
Q 1494 397 1959 397 
Q 2419 397 2687 759 
Q 2956 1122 2956 1747 
Q 2956 2369 2687 2733 
Q 2419 3097 1959 3097 
z
M 1959 3584 
Q 2709 3584 3137 3096 
Q 3566 2609 3566 1747 
Q 3566 888 3137 398 
Q 2709 -91 1959 -91 
Q 1206 -91 779 398 
Q 353 888 353 1747 
Q 353 2609 779 3096 
Q 1206 3584 1959 3584 
z
" transform="scale(0.015625)"/>
       <path id="DejaVuSans-72" d="M 2631 2963 
Q 2534 3019 2420 3045 
Q 2306 3072 2169 3072 
Q 1681 3072 1420 2755 
Q 1159 2438 1159 1844 
L 1159 0 
L 581 0 
L 581 3500 
L 1159 3500 
L 1159 2956 
Q 1341 3275 1631 3429 
Q 1922 3584 2338 3584 
Q 2397 3584 2469 3576 
Q 2541 3569 2628 3553 
L 2631 2963 
z
" transform="scale(0.015625)"/>
       <path id="DejaVuSans-65" d="M 3597 1894 
L 3597 1613 
L 953 1613 
Q 991 1019 1311 708 
Q 1631 397 2203 397 
Q 2534 397 2845 478 
Q 3156 559 3463 722 
L 3463 178 
Q 3153 47 2828 -22 
Q 2503 -91 2169 -91 
Q 1331 -91 842 396 
Q 353 884 353 1716 
Q 353 2575 817 3079 
Q 1281 3584 2069 3584 
Q 2775 3584 3186 3129 
Q 3597 2675 3597 1894 
z
M 3022 2063 
Q 3016 2534 2758 2815 
Q 2500 3097 2075 3097 
Q 1594 3097 1305 2825 
Q 1016 2553 972 2059 
L 3022 2063 
z
" transform="scale(0.015625)"/>
      </defs>
      <use xlink:href="#DejaVuSans-56"/>
      <use xlink:href="#DejaVuSans-69" x="66.158203"/>
      <use xlink:href="#DejaVuSans-53" x="93.941406"/>
      <use xlink:href="#DejaVuSans-51" x="157.417969"/>
      <use xlink:href="#DejaVuSans-4f" x="236.128906"/>
      <use xlink:href="#DejaVuSans-4c" x="314.839844"/>
      <use xlink:href="#DejaVuSans-20" x="370.552734"/>
      <use xlink:href="#DejaVuSans-53" x="402.339844"/>
      <use xlink:href="#DejaVuSans-63" x="465.816406"/>
      <use xlink:href="#DejaVuSans-6f" x="520.796875"/>
      <use xlink:href="#DejaVuSans-72" x="581.978516"/>
      <use xlink:href="#DejaVuSans-65" x="620.841797"/>
     </g>
    </g>
   </g>
   <g id="matplotlib.axis_2">
    <g id="ytick_1">
     <g id="line2d_19">
      <path d="M 51.52375 370.036875 
L 609.52375 370.036875 
" clip-path="url(#p653ceb8311)" style="fill: none; stroke-dasharray: 2.96,1.28; stroke-dashoffset: 0; stroke: #b0b0b0; stroke-opacity: 0.7; stroke-width: 0.8"/>
     </g>
     <g id="line2d_20">
      <defs>
       <path id="m08d6d785a9" d="M 0 0 
L -3.5 0 
" style="stroke: #000000; stroke-width: 0.8"/>
      </defs>
      <g>
       <use xlink:href="#m08d6d785a9" x="51.52375" y="370.036875" style="stroke: #000000; stroke-width: 0.8"/>
      </g>
     </g>
     <g id="text_11">
      <!-- 1.0 -->
      <g transform="translate(28.620625 373.836094) scale(0.1 -0.1)">
       <use xlink:href="#DejaVuSans-31"/>
       <use xlink:href="#DejaVuSans-2e" x="63.623047"/>
       <use xlink:href="#DejaVuSans-30" x="95.410156"/>
      </g>
     </g>
    </g>
    <g id="ytick_2">
     <g id="line2d_21">
      <path d="M 51.52375 328.456875 
L 609.52375 328.456875 
" clip-path="url(#p653ceb8311)" style="fill: none; stroke-dasharray: 2.96,1.28; stroke-dashoffset: 0; stroke: #b0b0b0; stroke-opacity: 0.7; stroke-width: 0.8"/>
     </g>
     <g id="line2d_22">
      <g>
       <use xlink:href="#m08d6d785a9" x="51.52375" y="328.456875" style="stroke: #000000; stroke-width: 0.8"/>
      </g>
     </g>
     <g id="text_12">
      <!-- 1.5 -->
      <g transform="translate(28.620625 332.256094) scale(0.1 -0.1)">
       <use xlink:href="#DejaVuSans-31"/>
       <use xlink:href="#DejaVuSans-2e" x="63.623047"/>
       <use xlink:href="#DejaVuSans-35" x="95.410156"/>
      </g>
     </g>
    </g>
    <g id="ytick_3">
     <g id="line2d_23">
      <path d="M 51.52375 286.876875 
L 609.52375 286.876875 
" clip-path="url(#p653ceb8311)" style="fill: none; stroke-dasharray: 2.96,1.28; stroke-dashoffset: 0; stroke: #b0b0b0; stroke-opacity: 0.7; stroke-width: 0.8"/>
     </g>
     <g id="line2d_24">
      <g>
       <use xlink:href="#m08d6d785a9" x="51.52375" y="286.876875" style="stroke: #000000; stroke-width: 0.8"/>
      </g>
     </g>
     <g id="text_13">
      <!-- 2.0 -->
      <g transform="translate(28.620625 290.676094) scale(0.1 -0.1)">
       <use xlink:href="#DejaVuSans-32"/>
       <use xlink:href="#DejaVuSans-2e" x="63.623047"/>
       <use xlink:href="#DejaVuSans-30" x="95.410156"/>
      </g>
     </g>
    </g>
    <g id="ytick_4">
     <g id="line2d_25">
      <path d="M 51.52375 245.296875 
L 609.52375 245.296875 
" clip-path="url(#p653ceb8311)" style="fill: none; stroke-dasharray: 2.96,1.28; stroke-dashoffset: 0; stroke: #b0b0b0; stroke-opacity: 0.7; stroke-width: 0.8"/>
     </g>
     <g id="line2d_26">
      <g>
       <use xlink:href="#m08d6d785a9" x="51.52375" y="245.296875" style="stroke: #000000; stroke-width: 0.8"/>
      </g>
     </g>
     <g id="text_14">
      <!-- 2.5 -->
      <g transform="translate(28.620625 249.096094) scale(0.1 -0.1)">
       <use xlink:href="#DejaVuSans-32"/>
       <use xlink:href="#DejaVuSans-2e" x="63.623047"/>
       <use xlink:href="#DejaVuSans-35" x="95.410156"/>
      </g>
     </g>
    </g>
    <g id="ytick_5">
     <g id="line2d_27">
      <path d="M 51.52375 203.716875 
L 609.52375 203.716875 
" clip-path="url(#p653ceb8311)" style="fill: none; stroke-dasharray: 2.96,1.28; stroke-dashoffset: 0; stroke: #b0b0b0; stroke-opacity: 0.7; stroke-width: 0.8"/>
     </g>
     <g id="line2d_28">
      <g>
       <use xlink:href="#m08d6d785a9" x="51.52375" y="203.716875" style="stroke: #000000; stroke-width: 0.8"/>
      </g>
     </g>
     <g id="text_15">
      <!-- 3.0 -->
      <g transform="translate(28.620625 207.516094) scale(0.1 -0.1)">
       <use xlink:href="#DejaVuSans-33"/>
       <use xlink:href="#DejaVuSans-2e" x="63.623047"/>
       <use xlink:href="#DejaVuSans-30" x="95.410156"/>
      </g>
     </g>
    </g>
    <g id="ytick_6">
     <g id="line2d_29">
      <path d="M 51.52375 162.136875 
L 609.52375 162.136875 
" clip-path="url(#p653ceb8311)" style="fill: none; stroke-dasharray: 2.96,1.28; stroke-dashoffset: 0; stroke: #b0b0b0; stroke-opacity: 0.7; stroke-width: 0.8"/>
     </g>
     <g id="line2d_30">
      <g>
       <use xlink:href="#m08d6d785a9" x="51.52375" y="162.136875" style="stroke: #000000; stroke-width: 0.8"/>
      </g>
     </g>
     <g id="text_16">
      <!-- 3.5 -->
      <g transform="translate(28.620625 165.936094) scale(0.1 -0.1)">
       <use xlink:href="#DejaVuSans-33"/>
       <use xlink:href="#DejaVuSans-2e" x="63.623047"/>
       <use xlink:href="#DejaVuSans-35" x="95.410156"/>
      </g>
     </g>
    </g>
    <g id="ytick_7">
     <g id="line2d_31">
      <path d="M 51.52375 120.556875 
L 609.52375 120.556875 
" clip-path="url(#p653ceb8311)" style="fill: none; stroke-dasharray: 2.96,1.28; stroke-dashoffset: 0; stroke: #b0b0b0; stroke-opacity: 0.7; stroke-width: 0.8"/>
     </g>
     <g id="line2d_32">
      <g>
       <use xlink:href="#m08d6d785a9" x="51.52375" y="120.556875" style="stroke: #000000; stroke-width: 0.8"/>
      </g>
     </g>
     <g id="text_17">
      <!-- 4.0 -->
      <g transform="translate(28.620625 124.356094) scale(0.1 -0.1)">
       <use xlink:href="#DejaVuSans-34"/>
       <use xlink:href="#DejaVuSans-2e" x="63.623047"/>
       <use xlink:href="#DejaVuSans-30" x="95.410156"/>
      </g>
     </g>
    </g>
    <g id="ytick_8">
     <g id="line2d_33">
      <path d="M 51.52375 78.976875 
L 609.52375 78.976875 
" clip-path="url(#p653ceb8311)" style="fill: none; stroke-dasharray: 2.96,1.28; stroke-dashoffset: 0; stroke: #b0b0b0; stroke-opacity: 0.7; stroke-width: 0.8"/>
     </g>
     <g id="line2d_34">
      <g>
       <use xlink:href="#m08d6d785a9" x="51.52375" y="78.976875" style="stroke: #000000; stroke-width: 0.8"/>
      </g>
     </g>
     <g id="text_18">
      <!-- 4.5 -->
      <g transform="translate(28.620625 82.776094) scale(0.1 -0.1)">
       <use xlink:href="#DejaVuSans-34"/>
       <use xlink:href="#DejaVuSans-2e" x="63.623047"/>
       <use xlink:href="#DejaVuSans-35" x="95.410156"/>
      </g>
     </g>
    </g>
    <g id="ytick_9">
     <g id="line2d_35">
      <path d="M 51.52375 37.396875 
L 609.52375 37.396875 
" clip-path="url(#p653ceb8311)" style="fill: none; stroke-dasharray: 2.96,1.28; stroke-dashoffset: 0; stroke: #b0b0b0; stroke-opacity: 0.7; stroke-width: 0.8"/>
     </g>
     <g id="line2d_36">
      <g>
       <use xlink:href="#m08d6d785a9" x="51.52375" y="37.396875" style="stroke: #000000; stroke-width: 0.8"/>
      </g>
     </g>
     <g id="text_19">
      <!-- 5.0 -->
      <g transform="translate(28.620625 41.196094) scale(0.1 -0.1)">
       <use xlink:href="#DejaVuSans-35"/>
       <use xlink:href="#DejaVuSans-2e" x="63.623047"/>
       <use xlink:href="#DejaVuSans-30" x="95.410156"/>
      </g>
     </g>
    </g>
    <g id="text_20">
     <!-- PESQ Score -->
     <g transform="translate(20.877188 255.693281) rotate(-90) scale(0.18 -0.18)">
      <defs>
       <path id="DejaVuSans-50" d="M 1259 4147 
L 1259 2394 
L 2053 2394 
Q 2494 2394 2734 2622 
Q 2975 2850 2975 3272 
Q 2975 3691 2734 3919 
Q 2494 4147 2053 4147 
L 1259 4147 
z
M 628 4666 
L 2053 4666 
Q 2838 4666 3239 4311 
Q 3641 3956 3641 3272 
Q 3641 2581 3239 2228 
Q 2838 1875 2053 1875 
L 1259 1875 
L 1259 0 
L 628 0 
L 628 4666 
z
" transform="scale(0.015625)"/>
       <path id="DejaVuSans-45" d="M 628 4666 
L 3578 4666 
L 3578 4134 
L 1259 4134 
L 1259 2753 
L 3481 2753 
L 3481 2222 
L 1259 2222 
L 1259 531 
L 3634 531 
L 3634 0 
L 628 0 
L 628 4666 
z
" transform="scale(0.015625)"/>
      </defs>
      <use xlink:href="#DejaVuSans-50"/>
      <use xlink:href="#DejaVuSans-45" x="60.302734"/>
      <use xlink:href="#DejaVuSans-53" x="123.486328"/>
      <use xlink:href="#DejaVuSans-51" x="186.962891"/>
      <use xlink:href="#DejaVuSans-20" x="265.673828"/>
      <use xlink:href="#DejaVuSans-53" x="297.460938"/>
      <use xlink:href="#DejaVuSans-63" x="360.9375"/>
      <use xlink:href="#DejaVuSans-6f" x="415.917969"/>
      <use xlink:href="#DejaVuSans-72" x="477.099609"/>
      <use xlink:href="#DejaVuSans-65" x="515.962891"/>
     </g>
    </g>
   </g>
   <g id="line2d_37">
    <path d="M 51.52375 351.881711 
L 130.762336 348.391971 
L 149.617215 347.253297 
L 166.580092 345.981635 
L 180.502182 344.718292 
L 190.094107 343.71361 
L 206.337612 341.727548 
L 214.492879 340.581317 
L 230.330895 338.038586 
L 241.919272 335.88964 
L 244.416093 335.392511 
L 254.405163 333.276373 
L 268.131563 330.018505 
L 273.75255 328.560816 
L 284.467515 325.5722 
L 294.963694 322.36515 
L 304.973755 319.035591 
L 314.338873 315.669644 
L 326.570246 310.890821 
L 331.731365 308.739294 
L 344.662573 302.981793 
L 353.86383 298.554095 
L 363.082032 293.831214 
L 366.394721 292.061925 
L 373.501109 288.134881 
L 383.275775 282.433177 
L 391.206234 277.544544 
L 399.705993 272.036065 
L 407.898311 266.456488 
L 416.244287 260.492165 
L 424.880043 254.015458 
L 430.26011 249.819973 
L 440.164674 241.766403 
L 449.263874 233.982187 
L 457.994622 226.157114 
L 464.346585 220.240094 
L 472.155834 212.701755 
L 482.848887 201.897406 
L 490.444534 193.876527 
L 497.878528 185.74192 
L 507.833259 174.399315 
L 515.874999 164.852751 
L 524.308783 154.464755 
L 532.060314 144.571232 
L 540.246444 133.756708 
L 548.236553 122.831796 
L 555.988164 111.878188 
L 564.274771 99.775497 
L 565.599315 97.80287 
L 565.599315 97.80287 
" clip-path="url(#p653ceb8311)" style="fill: none; stroke: #0000ff; stroke-width: 2; stroke-linecap: square"/>
   </g>
   <g id="line2d_38">
    <path d="M 51.52375 350.033446 
L 129.539694 339.423586 
L 145.239628 338.384138 
L 167.696417 337.157809 
L 206.092468 335.092775 
L 222.002003 333.997256 
L 237.034943 332.710603 
L 252.366962 331.064915 
L 262.920287 329.694099 
L 275.307136 327.796239 
L 280.360462 326.923035 
L 291.307525 324.815872 
L 305.920535 321.500081 
L 312.871749 319.702457 
L 320.83081 317.456463 
L 332.383949 313.816993 
L 339.453049 311.35534 
L 349.723208 307.441927 
L 355.109417 305.22264 
L 361.439083 302.461676 
L 371.54076 297.699316 
L 382.301236 292.121646 
L 400.887753 281.179362 
L 410.34979 274.933365 
L 414.1567 272.285708 
L 424.699657 264.536204 
L 432.238077 258.608129 
L 439.662949 252.443135 
L 444.821535 247.964325 
L 452.718654 240.789244 
L 458.36923 235.413308 
L 467.423996 226.366301 
L 474.671255 218.731807 
L 483.413538 209.043614 
L 490.028496 201.356252 
L 498.361132 191.224251 
L 505.376446 182.297365 
L 513.163931 171.953089 
L 520.63749 161.585967 
L 527.807035 151.226768 
L 533.91456 142.076071 
L 541.274194 130.643165 
L 548.776401 118.522937 
L 556.181102 106.089732 
L 563.56871 93.210179 
L 566.946157 87.161379 
L 566.946157 87.161379 
" clip-path="url(#p653ceb8311)" style="fill: none; stroke-dasharray: 7.4,3.2; stroke-dashoffset: 0; stroke: #0000ff; stroke-width: 2"/>
   </g>
   <g id="line2d_39">
    <path d="M 51.52375 356.62019 
L 132.375173 348.852811 
L 170.027464 345.902569 
L 183.344637 344.710945 
L 200.367427 342.97704 
L 211.419429 341.688892 
L 226.029114 339.745194 
L 236.316941 338.186218 
L 247.202899 336.342374 
L 257.136269 334.467664 
L 271.382416 331.425155 
L 281.853606 328.897955 
L 292.313663 326.105879 
L 307.411383 321.565543 
L 316.425681 318.546241 
L 327.620305 314.453332 
L 336.587426 310.885751 
L 350.789428 304.677793 
L 358.061281 301.221216 
L 361.709732 299.413274 
L 371.434528 294.346213 
L 383.551853 287.50888 
L 386.289487 285.880889 
L 397.17191 279.095367 
L 407.942376 271.869629 
L 415.53883 266.456768 
L 426.314906 258.313028 
L 430.934736 254.650011 
L 435.330854 251.066505 
L 448.466 239.776523 
L 457.017349 231.943558 
L 466.174472 223.119526 
L 473.663097 215.559238 
L 481.020046 207.823115 
L 488.253502 199.911979 
L 497.800035 188.997528 
L 505.364069 179.958274 
L 512.298232 171.360982 
L 518.962047 162.813438 
L 527.143148 151.929751 
L 533.126774 143.6924 
L 540.830254 132.736308 
L 549.129683 120.482226 
L 556.477253 109.236183 
L 564.771507 96.084068 
L 567.66882 91.373909 
L 567.66882 91.373909 
" clip-path="url(#p653ceb8311)" style="fill: none; stroke: #ff0000; stroke-width: 2; stroke-linecap: square"/>
   </g>
   <g id="line2d_40">
    <path d="M 51.52375 339.565509 
L 122.437241 340.155712 
L 131.402217 339.261738 
L 142.28746 337.89834 
L 149.966944 336.755949 
L 161.021527 334.853734 
L 169.624403 333.166298 
L 180.944952 330.674691 
L 190.654117 328.296734 
L 193.255926 327.622246 
L 205.571512 324.219198 
L 217.731667 320.524155 
L 231.481304 315.955154 
L 238.706492 313.391574 
L 252.466559 308.206751 
L 257.162975 306.347925 
L 271.138096 300.554248 
L 285.818082 294.055634 
L 290.029718 292.11505 
L 300.185267 287.299148 
L 310.20032 282.364399 
L 319.217479 277.767437 
L 334.362907 269.727211 
L 346.848079 262.80769 
L 362.517713 253.764383 
L 374.524316 246.574516 
L 391.732553 235.892015 
L 407.677842 225.613729 
L 420.101528 217.363975 
L 435.276715 207.013486 
L 449.034898 197.381421 
L 466.027462 185.176865 
L 481.504694 173.781304 
L 497.663957 161.617542 
L 515.457089 147.931321 
L 531.445667 135.391248 
L 551.289228 119.537062 
L 563.458511 109.668745 
L 563.458511 109.668745 
" clip-path="url(#p653ceb8311)" style="fill: none; stroke-dasharray: 7.4,3.2; stroke-dashoffset: 0; stroke: #ff0000; stroke-width: 2"/>
   </g>
   <g id="line2d_41">
    <path d="M 51.52375 354.164853 
L 126.340772 344.94655 
L 166.864003 340.696908 
L 185.537308 338.492455 
L 202.262714 336.25805 
L 215.320525 334.289205 
L 227.855049 332.175489 
L 234.027788 331.043569 
L 248.86371 328.047644 
L 259.773152 325.570908 
L 278.75338 320.636748 
L 287.120544 318.184513 
L 296.950187 315.068122 
L 312.622469 309.534527 
L 328.04914 303.353689 
L 333.74309 300.875768 
L 342.326379 296.929758 
L 350.249633 293.054057 
L 361.431383 287.186798 
L 367.334757 283.894268 
L 378.034073 277.569493 
L 386.1861 272.430517 
L 396.919335 265.225198 
L 408.349437 256.981331 
L 414.00052 252.680416 
L 420.719845 247.366999 
L 431.040984 238.771919 
L 437.307218 233.290548 
L 444.858696 226.413642 
L 455.69211 216.016194 
L 462.052762 209.611798 
L 470.262305 201.00934 
L 478.994666 191.433083 
L 486.597758 182.728945 
L 492.720166 175.466717 
L 499.564496 167.075556 
L 507.578688 156.87725 
L 515.842211 145.931585 
L 522.629902 136.607411 
L 530.433499 125.508742 
L 538.489354 113.617849 
L 546.202436 101.812101 
L 553.565562 90.150622 
L 553.565562 90.150622 
" clip-path="url(#p653ceb8311)" style="fill: none; stroke: #008000; stroke-width: 2; stroke-linecap: square"/>
   </g>
   <g id="line2d_42">
    <path d="M 51.52375 344.746639 
L 123.145406 338.12124 
L 154.802664 335.356144 
L 173.25838 333.534624 
L 190.044562 331.653983 
L 200.582002 330.334511 
L 216.694041 328.067485 
L 229.954458 325.940049 
L 239.576193 324.228987 
L 253.551422 321.465387 
L 255.172112 321.122114 
L 272.081763 317.23498 
L 285.996351 313.586486 
L 293.76275 311.35872 
L 304.319611 308.096516 
L 313.162508 305.145837 
L 321.250419 302.264429 
L 331.328612 298.418526 
L 343.363962 293.436179 
L 352.208754 289.491327 
L 362.835349 284.419538 
L 369.402486 281.097239 
L 386.802442 271.567606 
L 391.009653 269.099094 
L 398.069504 264.807895 
L 409.842559 257.225091 
L 418.461553 251.324494 
L 424.02138 247.356917 
L 433.291368 240.453104 
L 440.840958 234.557521 
L 447.19515 229.400825 
L 455.664776 222.244414 
L 463.937021 214.935398 
L 474.30174 205.3202 
L 482.779822 197.067129 
L 490.907486 188.819039 
L 499.849724 179.355285 
L 507.731229 170.668682 
L 515.681645 161.571125 
L 523.765939 151.968324 
L 531.769336 142.104904 
L 539.374305 132.397271 
L 547.617494 121.498924 
L 555.349831 110.913796 
L 563.995191 98.655734 
L 568.575062 91.978178 
L 568.575062 91.978178 
" clip-path="url(#p653ceb8311)" style="fill: none; stroke-dasharray: 7.4,3.2; stroke-dashoffset: 0; stroke: #008000; stroke-width: 2"/>
   </g>
   <g id="line2d_43">
    <path d="M 51.52375 370.036875 
L 609.52375 37.396875 
" clip-path="url(#p653ceb8311)" style="fill: none; stroke-dasharray: 0.5,0.825; stroke-dashoffset: 0; stroke: #000000; stroke-width: 0.5"/>
   </g>
   <g id="patch_3">
    <path d="M 51.52375 370.036875 
L 51.52375 37.396875 
" style="fill: none; stroke: #000000; stroke-width: 0.8; stroke-linejoin: miter; stroke-linecap: square"/>
   </g>
   <g id="patch_4">
    <path d="M 609.52375 370.036875 
L 609.52375 37.396875 
" style="fill: none; stroke: #000000; stroke-width: 0.8; stroke-linejoin: miter; stroke-linecap: square"/>
   </g>
   <g id="patch_5">
    <path d="M 51.52375 370.036875 
L 609.52375 370.036875 
" style="fill: none; stroke: #000000; stroke-width: 0.8; stroke-linejoin: miter; stroke-linecap: square"/>
   </g>
   <g id="patch_6">
    <path d="M 51.52375 37.396875 
L 609.52375 37.396875 
" style="fill: none; stroke: #000000; stroke-width: 0.8; stroke-linejoin: miter; stroke-linecap: square"/>
   </g>
   <g id="text_21">
    <!-- PESQ and ViSQOL Scores by Language and Gender -->
    <g transform="translate(75.33625 22.396875) scale(0.2 -0.2)">
     <defs>
      <path id="DejaVuSans-61" d="M 2194 1759 
Q 1497 1759 1228 1600 
Q 959 1441 959 1056 
Q 959 750 1161 570 
Q 1363 391 1709 391 
Q 2188 391 2477 730 
Q 2766 1069 2766 1631 
L 2766 1759 
L 2194 1759 
z
M 3341 1997 
L 3341 0 
L 2766 0 
L 2766 531 
Q 2569 213 2275 61 
Q 1981 -91 1556 -91 
Q 1019 -91 701 211 
Q 384 513 384 1019 
Q 384 1609 779 1909 
Q 1175 2209 1959 2209 
L 2766 2209 
L 2766 2266 
Q 2766 2663 2505 2880 
Q 2244 3097 1772 3097 
Q 1472 3097 1187 3025 
Q 903 2953 641 2809 
L 641 3341 
Q 956 3463 1253 3523 
Q 1550 3584 1831 3584 
Q 2591 3584 2966 3190 
Q 3341 2797 3341 1997 
z
" transform="scale(0.015625)"/>
      <path id="DejaVuSans-6e" d="M 3513 2113 
L 3513 0 
L 2938 0 
L 2938 2094 
Q 2938 2591 2744 2837 
Q 2550 3084 2163 3084 
Q 1697 3084 1428 2787 
Q 1159 2491 1159 1978 
L 1159 0 
L 581 0 
L 581 3500 
L 1159 3500 
L 1159 2956 
Q 1366 3272 1645 3428 
Q 1925 3584 2291 3584 
Q 2894 3584 3203 3211 
Q 3513 2838 3513 2113 
z
" transform="scale(0.015625)"/>
      <path id="DejaVuSans-64" d="M 2906 2969 
L 2906 4863 
L 3481 4863 
L 3481 0 
L 2906 0 
L 2906 525 
Q 2725 213 2448 61 
Q 2172 -91 1784 -91 
Q 1150 -91 751 415 
Q 353 922 353 1747 
Q 353 2572 751 3078 
Q 1150 3584 1784 3584 
Q 2172 3584 2448 3432 
Q 2725 3281 2906 2969 
z
M 947 1747 
Q 947 1113 1208 752 
Q 1469 391 1925 391 
Q 2381 391 2643 752 
Q 2906 1113 2906 1747 
Q 2906 2381 2643 2742 
Q 2381 3103 1925 3103 
Q 1469 3103 1208 2742 
Q 947 2381 947 1747 
z
" transform="scale(0.015625)"/>
      <path id="DejaVuSans-73" d="M 2834 3397 
L 2834 2853 
Q 2591 2978 2328 3040 
Q 2066 3103 1784 3103 
Q 1356 3103 1142 2972 
Q 928 2841 928 2578 
Q 928 2378 1081 2264 
Q 1234 2150 1697 2047 
L 1894 2003 
Q 2506 1872 2764 1633 
Q 3022 1394 3022 966 
Q 3022 478 2636 193 
Q 2250 -91 1575 -91 
Q 1294 -91 989 -36 
Q 684 19 347 128 
L 347 722 
Q 666 556 975 473 
Q 1284 391 1588 391 
Q 1994 391 2212 530 
Q 2431 669 2431 922 
Q 2431 1156 2273 1281 
Q 2116 1406 1581 1522 
L 1381 1569 
Q 847 1681 609 1914 
Q 372 2147 372 2553 
Q 372 3047 722 3315 
Q 1072 3584 1716 3584 
Q 2034 3584 2315 3537 
Q 2597 3491 2834 3397 
z
" transform="scale(0.015625)"/>
      <path id="DejaVuSans-62" d="M 3116 1747 
Q 3116 2381 2855 2742 
Q 2594 3103 2138 3103 
Q 1681 3103 1420 2742 
Q 1159 2381 1159 1747 
Q 1159 1113 1420 752 
Q 1681 391 2138 391 
Q 2594 391 2855 752 
Q 3116 1113 3116 1747 
z
M 1159 2969 
Q 1341 3281 1617 3432 
Q 1894 3584 2278 3584 
Q 2916 3584 3314 3078 
Q 3713 2572 3713 1747 
Q 3713 922 3314 415 
Q 2916 -91 2278 -91 
Q 1894 -91 1617 61 
Q 1341 213 1159 525 
L 1159 0 
L 581 0 
L 581 4863 
L 1159 4863 
L 1159 2969 
z
" transform="scale(0.015625)"/>
      <path id="DejaVuSans-79" d="M 2059 -325 
Q 1816 -950 1584 -1140 
Q 1353 -1331 966 -1331 
L 506 -1331 
L 506 -850 
L 844 -850 
Q 1081 -850 1212 -737 
Q 1344 -625 1503 -206 
L 1606 56 
L 191 3500 
L 800 3500 
L 1894 763 
L 2988 3500 
L 3597 3500 
L 2059 -325 
z
" transform="scale(0.015625)"/>
      <path id="DejaVuSans-67" d="M 2906 1791 
Q 2906 2416 2648 2759 
Q 2391 3103 1925 3103 
Q 1463 3103 1205 2759 
Q 947 2416 947 1791 
Q 947 1169 1205 825 
Q 1463 481 1925 481 
Q 2391 481 2648 825 
Q 2906 1169 2906 1791 
z
M 3481 434 
Q 3481 -459 3084 -895 
Q 2688 -1331 1869 -1331 
Q 1566 -1331 1297 -1286 
Q 1028 -1241 775 -1147 
L 775 -588 
Q 1028 -725 1275 -790 
Q 1522 -856 1778 -856 
Q 2344 -856 2625 -561 
Q 2906 -266 2906 331 
L 2906 616 
Q 2728 306 2450 153 
Q 2172 0 1784 0 
Q 1141 0 747 490 
Q 353 981 353 1791 
Q 353 2603 747 3093 
Q 1141 3584 1784 3584 
Q 2172 3584 2450 3431 
Q 2728 3278 2906 2969 
L 2906 3500 
L 3481 3500 
L 3481 434 
z
" transform="scale(0.015625)"/>
      <path id="DejaVuSans-75" d="M 544 1381 
L 544 3500 
L 1119 3500 
L 1119 1403 
Q 1119 906 1312 657 
Q 1506 409 1894 409 
Q 2359 409 2629 706 
Q 2900 1003 2900 1516 
L 2900 3500 
L 3475 3500 
L 3475 0 
L 2900 0 
L 2900 538 
Q 2691 219 2414 64 
Q 2138 -91 1772 -91 
Q 1169 -91 856 284 
Q 544 659 544 1381 
z
M 1991 3584 
L 1991 3584 
z
" transform="scale(0.015625)"/>
      <path id="DejaVuSans-47" d="M 3809 666 
L 3809 1919 
L 2778 1919 
L 2778 2438 
L 4434 2438 
L 4434 434 
Q 4069 175 3628 42 
Q 3188 -91 2688 -91 
Q 1594 -91 976 548 
Q 359 1188 359 2328 
Q 359 3472 976 4111 
Q 1594 4750 2688 4750 
Q 3144 4750 3555 4637 
Q 3966 4525 4313 4306 
L 4313 3634 
Q 3963 3931 3569 4081 
Q 3175 4231 2741 4231 
Q 1884 4231 1454 3753 
Q 1025 3275 1025 2328 
Q 1025 1384 1454 906 
Q 1884 428 2741 428 
Q 3075 428 3337 486 
Q 3600 544 3809 666 
z
" transform="scale(0.015625)"/>
     </defs>
     <use xlink:href="#DejaVuSans-50"/>
     <use xlink:href="#DejaVuSans-45" x="60.302734"/>
     <use xlink:href="#DejaVuSans-53" x="123.486328"/>
     <use xlink:href="#DejaVuSans-51" x="186.962891"/>
     <use xlink:href="#DejaVuSans-20" x="265.673828"/>
     <use xlink:href="#DejaVuSans-61" x="297.460938"/>
     <use xlink:href="#DejaVuSans-6e" x="358.740234"/>
     <use xlink:href="#DejaVuSans-64" x="422.119141"/>
     <use xlink:href="#DejaVuSans-20" x="485.595703"/>
     <use xlink:href="#DejaVuSans-56" x="517.382812"/>
     <use xlink:href="#DejaVuSans-69" x="583.541016"/>
     <use xlink:href="#DejaVuSans-53" x="611.324219"/>
     <use xlink:href="#DejaVuSans-51" x="674.800781"/>
     <use xlink:href="#DejaVuSans-4f" x="753.511719"/>
     <use xlink:href="#DejaVuSans-4c" x="832.222656"/>
     <use xlink:href="#DejaVuSans-20" x="887.935547"/>
     <use xlink:href="#DejaVuSans-53" x="919.722656"/>
     <use xlink:href="#DejaVuSans-63" x="983.199219"/>
     <use xlink:href="#DejaVuSans-6f" x="1038.179688"/>
     <use xlink:href="#DejaVuSans-72" x="1099.361328"/>
     <use xlink:href="#DejaVuSans-65" x="1138.224609"/>
     <use xlink:href="#DejaVuSans-73" x="1199.748047"/>
     <use xlink:href="#DejaVuSans-20" x="1251.847656"/>
     <use xlink:href="#DejaVuSans-62" x="1283.634766"/>
     <use xlink:href="#DejaVuSans-79" x="1347.111328"/>
     <use xlink:href="#DejaVuSans-20" x="1406.291016"/>
     <use xlink:href="#DejaVuSans-4c" x="1438.078125"/>
     <use xlink:href="#DejaVuSans-61" x="1493.791016"/>
     <use xlink:href="#DejaVuSans-6e" x="1555.070312"/>
     <use xlink:href="#DejaVuSans-67" x="1618.449219"/>
     <use xlink:href="#DejaVuSans-75" x="1681.925781"/>
     <use xlink:href="#DejaVuSans-61" x="1745.304688"/>
     <use xlink:href="#DejaVuSans-67" x="1806.583984"/>
     <use xlink:href="#DejaVuSans-65" x="1870.060547"/>
     <use xlink:href="#DejaVuSans-20" x="1931.583984"/>
     <use xlink:href="#DejaVuSans-61" x="1963.371094"/>
     <use xlink:href="#DejaVuSans-6e" x="2024.650391"/>
     <use xlink:href="#DejaVuSans-64" x="2088.029297"/>
     <use xlink:href="#DejaVuSans-20" x="2151.505859"/>
     <use xlink:href="#DejaVuSans-47" x="2183.292969"/>
     <use xlink:href="#DejaVuSans-65" x="2260.783203"/>
     <use xlink:href="#DejaVuSans-6e" x="2322.306641"/>
     <use xlink:href="#DejaVuSans-64" x="2385.685547"/>
     <use xlink:href="#DejaVuSans-65" x="2449.162109"/>
     <use xlink:href="#DejaVuSans-72" x="2510.685547"/>
    </g>
   </g>
   <g id="legend_1">
    <g id="patch_7">
     <path d="M 61.32375 171.893125 
L 211.740625 171.893125 
Q 214.540625 171.893125 214.540625 169.093125 
L 214.540625 47.196875 
Q 214.540625 44.396875 211.740625 44.396875 
L 61.32375 44.396875 
Q 58.52375 44.396875 58.52375 47.196875 
L 58.52375 169.093125 
Q 58.52375 171.893125 61.32375 171.893125 
z
" style="fill: #ffffff; opacity: 0.8; stroke: #cccccc; stroke-linejoin: miter"/>
    </g>
    <g id="line2d_44">
     <path d="M 64.12375 55.734687 
L 78.12375 55.734687 
L 92.12375 55.734687 
" style="fill: none; stroke: #0000ff; stroke-width: 2; stroke-linecap: square"/>
    </g>
    <g id="text_22">
     <!-- English Female -->
     <g transform="translate(103.32375 60.634687) scale(0.14 -0.14)">
      <defs>
       <path id="DejaVuSans-6c" d="M 603 4863 
L 1178 4863 
L 1178 0 
L 603 0 
L 603 4863 
z
" transform="scale(0.015625)"/>
       <path id="DejaVuSans-68" d="M 3513 2113 
L 3513 0 
L 2938 0 
L 2938 2094 
Q 2938 2591 2744 2837 
Q 2550 3084 2163 3084 
Q 1697 3084 1428 2787 
Q 1159 2491 1159 1978 
L 1159 0 
L 581 0 
L 581 4863 
L 1159 4863 
L 1159 2956 
Q 1366 3272 1645 3428 
Q 1925 3584 2291 3584 
Q 2894 3584 3203 3211 
Q 3513 2838 3513 2113 
z
" transform="scale(0.015625)"/>
       <path id="DejaVuSans-46" d="M 628 4666 
L 3309 4666 
L 3309 4134 
L 1259 4134 
L 1259 2759 
L 3109 2759 
L 3109 2228 
L 1259 2228 
L 1259 0 
L 628 0 
L 628 4666 
z
" transform="scale(0.015625)"/>
       <path id="DejaVuSans-6d" d="M 3328 2828 
Q 3544 3216 3844 3400 
Q 4144 3584 4550 3584 
Q 5097 3584 5394 3201 
Q 5691 2819 5691 2113 
L 5691 0 
L 5113 0 
L 5113 2094 
Q 5113 2597 4934 2840 
Q 4756 3084 4391 3084 
Q 3944 3084 3684 2787 
Q 3425 2491 3425 1978 
L 3425 0 
L 2847 0 
L 2847 2094 
Q 2847 2600 2669 2842 
Q 2491 3084 2119 3084 
Q 1678 3084 1418 2786 
Q 1159 2488 1159 1978 
L 1159 0 
L 581 0 
L 581 3500 
L 1159 3500 
L 1159 2956 
Q 1356 3278 1631 3431 
Q 1906 3584 2284 3584 
Q 2666 3584 2933 3390 
Q 3200 3197 3328 2828 
z
" transform="scale(0.015625)"/>
      </defs>
      <use xlink:href="#DejaVuSans-45"/>
      <use xlink:href="#DejaVuSans-6e" x="63.183594"/>
      <use xlink:href="#DejaVuSans-67" x="126.5625"/>
      <use xlink:href="#DejaVuSans-6c" x="190.039062"/>
      <use xlink:href="#DejaVuSans-69" x="217.822266"/>
      <use xlink:href="#DejaVuSans-73" x="245.605469"/>
      <use xlink:href="#DejaVuSans-68" x="297.705078"/>
      <use xlink:href="#DejaVuSans-20" x="361.083984"/>
      <use xlink:href="#DejaVuSans-46" x="392.871094"/>
      <use xlink:href="#DejaVuSans-65" x="444.890625"/>
      <use xlink:href="#DejaVuSans-6d" x="506.414062"/>
      <use xlink:href="#DejaVuSans-61" x="603.826172"/>
      <use xlink:href="#DejaVuSans-6c" x="665.105469"/>
      <use xlink:href="#DejaVuSans-65" x="692.888672"/>
     </g>
    </g>
    <g id="line2d_45">
     <path d="M 64.12375 76.284062 
L 78.12375 76.284062 
L 92.12375 76.284062 
" style="fill: none; stroke-dasharray: 7.4,3.2; stroke-dashoffset: 0; stroke: #0000ff; stroke-width: 2"/>
    </g>
    <g id="text_23">
     <!-- English Male -->
     <g transform="translate(103.32375 81.184062) scale(0.14 -0.14)">
      <defs>
       <path id="DejaVuSans-4d" d="M 628 4666 
L 1569 4666 
L 2759 1491 
L 3956 4666 
L 4897 4666 
L 4897 0 
L 4281 0 
L 4281 4097 
L 3078 897 
L 2444 897 
L 1241 4097 
L 1241 0 
L 628 0 
L 628 4666 
z
" transform="scale(0.015625)"/>
      </defs>
      <use xlink:href="#DejaVuSans-45"/>
      <use xlink:href="#DejaVuSans-6e" x="63.183594"/>
      <use xlink:href="#DejaVuSans-67" x="126.5625"/>
      <use xlink:href="#DejaVuSans-6c" x="190.039062"/>
      <use xlink:href="#DejaVuSans-69" x="217.822266"/>
      <use xlink:href="#DejaVuSans-73" x="245.605469"/>
      <use xlink:href="#DejaVuSans-68" x="297.705078"/>
      <use xlink:href="#DejaVuSans-20" x="361.083984"/>
      <use xlink:href="#DejaVuSans-4d" x="392.871094"/>
      <use xlink:href="#DejaVuSans-61" x="479.150391"/>
      <use xlink:href="#DejaVuSans-6c" x="540.429688"/>
      <use xlink:href="#DejaVuSans-65" x="568.212891"/>
     </g>
    </g>
    <g id="line2d_46">
     <path d="M 64.12375 96.833437 
L 78.12375 96.833437 
L 92.12375 96.833437 
" style="fill: none; stroke: #ff0000; stroke-width: 2; stroke-linecap: square"/>
    </g>
    <g id="text_24">
     <!-- Turkish Female -->
     <g transform="translate(103.32375 101.733437) scale(0.14 -0.14)">
      <defs>
       <path id="DejaVuSans-54" d="M -19 4666 
L 3928 4666 
L 3928 4134 
L 2272 4134 
L 2272 0 
L 1638 0 
L 1638 4134 
L -19 4134 
L -19 4666 
z
" transform="scale(0.015625)"/>
       <path id="DejaVuSans-6b" d="M 581 4863 
L 1159 4863 
L 1159 1991 
L 2875 3500 
L 3609 3500 
L 1753 1863 
L 3688 0 
L 2938 0 
L 1159 1709 
L 1159 0 
L 581 0 
L 581 4863 
z
" transform="scale(0.015625)"/>
      </defs>
      <use xlink:href="#DejaVuSans-54"/>
      <use xlink:href="#DejaVuSans-75" x="45.958984"/>
      <use xlink:href="#DejaVuSans-72" x="109.337891"/>
      <use xlink:href="#DejaVuSans-6b" x="150.451172"/>
      <use xlink:href="#DejaVuSans-69" x="208.361328"/>
      <use xlink:href="#DejaVuSans-73" x="236.144531"/>
      <use xlink:href="#DejaVuSans-68" x="288.244141"/>
      <use xlink:href="#DejaVuSans-20" x="351.623047"/>
      <use xlink:href="#DejaVuSans-46" x="383.410156"/>
      <use xlink:href="#DejaVuSans-65" x="435.429688"/>
      <use xlink:href="#DejaVuSans-6d" x="496.953125"/>
      <use xlink:href="#DejaVuSans-61" x="594.365234"/>
      <use xlink:href="#DejaVuSans-6c" x="655.644531"/>
      <use xlink:href="#DejaVuSans-65" x="683.427734"/>
     </g>
    </g>
    <g id="line2d_47">
     <path d="M 64.12375 117.382812 
L 78.12375 117.382812 
L 92.12375 117.382812 
" style="fill: none; stroke-dasharray: 7.4,3.2; stroke-dashoffset: 0; stroke: #ff0000; stroke-width: 2"/>
    </g>
    <g id="text_25">
     <!-- Turkish Male -->
     <g transform="translate(103.32375 122.282812) scale(0.14 -0.14)">
      <use xlink:href="#DejaVuSans-54"/>
      <use xlink:href="#DejaVuSans-75" x="45.958984"/>
      <use xlink:href="#DejaVuSans-72" x="109.337891"/>
      <use xlink:href="#DejaVuSans-6b" x="150.451172"/>
      <use xlink:href="#DejaVuSans-69" x="208.361328"/>
      <use xlink:href="#DejaVuSans-73" x="236.144531"/>
      <use xlink:href="#DejaVuSans-68" x="288.244141"/>
      <use xlink:href="#DejaVuSans-20" x="351.623047"/>
      <use xlink:href="#DejaVuSans-4d" x="383.410156"/>
      <use xlink:href="#DejaVuSans-61" x="469.689453"/>
      <use xlink:href="#DejaVuSans-6c" x="530.96875"/>
      <use xlink:href="#DejaVuSans-65" x="558.751953"/>
     </g>
    </g>
    <g id="line2d_48">
     <path d="M 64.12375 137.932187 
L 78.12375 137.932187 
L 92.12375 137.932187 
" style="fill: none; stroke: #008000; stroke-width: 2; stroke-linecap: square"/>
    </g>
    <g id="text_26">
     <!-- Korean Female -->
     <g transform="translate(103.32375 142.832187) scale(0.14 -0.14)">
      <defs>
       <path id="DejaVuSans-4b" d="M 628 4666 
L 1259 4666 
L 1259 2694 
L 3353 4666 
L 4166 4666 
L 1850 2491 
L 4331 0 
L 3500 0 
L 1259 2247 
L 1259 0 
L 628 0 
L 628 4666 
z
" transform="scale(0.015625)"/>
      </defs>
      <use xlink:href="#DejaVuSans-4b"/>
      <use xlink:href="#DejaVuSans-6f" x="60.576172"/>
      <use xlink:href="#DejaVuSans-72" x="121.757812"/>
      <use xlink:href="#DejaVuSans-65" x="160.621094"/>
      <use xlink:href="#DejaVuSans-61" x="222.144531"/>
      <use xlink:href="#DejaVuSans-6e" x="283.423828"/>
      <use xlink:href="#DejaVuSans-20" x="346.802734"/>
      <use xlink:href="#DejaVuSans-46" x="378.589844"/>
      <use xlink:href="#DejaVuSans-65" x="430.609375"/>
      <use xlink:href="#DejaVuSans-6d" x="492.132812"/>
      <use xlink:href="#DejaVuSans-61" x="589.544922"/>
      <use xlink:href="#DejaVuSans-6c" x="650.824219"/>
      <use xlink:href="#DejaVuSans-65" x="678.607422"/>
     </g>
    </g>
    <g id="line2d_49">
     <path d="M 64.12375 158.481562 
L 78.12375 158.481562 
L 92.12375 158.481562 
" style="fill: none; stroke-dasharray: 7.4,3.2; stroke-dashoffset: 0; stroke: #008000; stroke-width: 2"/>
    </g>
    <g id="text_27">
     <!-- Korean Male -->
     <g transform="translate(103.32375 163.381562) scale(0.14 -0.14)">
      <use xlink:href="#DejaVuSans-4b"/>
      <use xlink:href="#DejaVuSans-6f" x="60.576172"/>
      <use xlink:href="#DejaVuSans-72" x="121.757812"/>
      <use xlink:href="#DejaVuSans-65" x="160.621094"/>
      <use xlink:href="#DejaVuSans-61" x="222.144531"/>
      <use xlink:href="#DejaVuSans-6e" x="283.423828"/>
      <use xlink:href="#DejaVuSans-20" x="346.802734"/>
      <use xlink:href="#DejaVuSans-4d" x="378.589844"/>
      <use xlink:href="#DejaVuSans-61" x="464.869141"/>
      <use xlink:href="#DejaVuSans-6c" x="526.148438"/>
      <use xlink:href="#DejaVuSans-65" x="553.931641"/>
     </g>
    </g>
   </g>
  </g>
 </g>
 <defs>
  <clipPath id="p653ceb8311">
   <rect x="51.52375" y="37.396875" width="558" height="332.64"/>
  </clipPath>
 </defs>
</svg>
