<?xml version="1.0" encoding="utf-8" standalone="no"?>
<!DOCTYPE svg PUBLIC "-//W3C//DTD SVG 1.1//EN"
  "http://www.w3.org/Graphics/SVG/1.1/DTD/svg11.dtd">
<svg xmlns:xlink="http://www.w3.org/1999/xlink" width="857.373625pt" height="424.2975pt" viewBox="0 0 857.373625 424.2975" xmlns="http://www.w3.org/2000/svg" version="1.1">
 <metadata>
  <rdf:RDF xmlns:dc="http://purl.org/dc/elements/1.1/" xmlns:cc="http://creativecommons.org/ns#" xmlns:rdf="http://www.w3.org/1999/02/22-rdf-syntax-ns#">
   <cc:Work>
    <dc:type rdf:resource="http://purl.org/dc/dcmitype/StillImage"/>
    <dc:date>2025-01-25T03:37:57.339269</dc:date>
    <dc:format>image/svg+xml</dc:format>
    <dc:creator>
     <cc:Agent>
      <dc:title>Matplotlib v3.9.3, https://matplotlib.org/</dc:title>
     </cc:Agent>
    </dc:creator>
   </cc:Work>
  </rdf:RDF>
 </metadata>
 <defs>
  <style type="text/css">*{stroke-linejoin: round; stroke-linecap: butt}</style>
 </defs>
 <g id="figure_1">
  <g id="patch_1">
   <path d="M 0 424.2975 
L 857.373625 424.2975 
L 857.373625 0 
L 0 0 
z
" style="fill: #ffffff"/>
  </g>
  <g id="axes_1">
   <g id="patch_2">
    <path d="M 51.52375 392.676875 
L 722.93375 392.676875 
L 722.93375 42.396875 
L 51.52375 42.396875 
z
" style="fill: #ffffff"/>
   </g>
   <g id="PolyCollection_1">
    <path d="M 163.425417 479.204118 
L 157.733001 479.204118 
L 156.43492 474.524864 
L 154.913433 469.845609 
L 153.148163 465.166355 
L 151.121034 460.487101 
L 148.817342 455.807846 
L 146.226892 451.128592 
L 143.345116 446.449338 
L 140.174142 441.770083 
L 136.723726 437.090829 
L 133.011994 432.411574 
L 129.065918 427.73232 
L 124.921471 423.053066 
L 120.623418 418.373811 
L 116.224712 413.694557 
L 111.785479 409.015302 
L 107.371626 404.336048 
L 103.053091 399.656794 
L 98.901804 394.977539 
L 94.989459 390.298285 
L 91.385165 385.61903 
L 88.153121 380.939776 
L 85.350399 376.260522 
L 83.024973 371.581267 
L 81.214068 366.902013 
L 79.942931 362.222759 
L 79.224067 357.543504 
L 79.056991 352.86425 
L 79.428472 348.184995 
L 80.313276 343.505741 
L 81.675335 338.826487 
L 83.469274 334.147232 
L 85.642216 329.467978 
L 88.135757 324.788723 
L 90.888007 320.109469 
L 93.835613 315.430215 
L 96.915644 310.75096 
L 100.067289 306.071706 
L 103.233296 301.392451 
L 106.3611 296.713197 
L 109.403645 292.033943 
L 112.319877 287.354688 
L 115.07493 282.675434 
L 117.640056 277.99618 
L 119.992314 273.316925 
L 122.114097 268.637671 
L 123.992546 263.958416 
L 125.618905 259.279162 
L 126.987879 254.599908 
L 128.097044 249.920653 
L 128.946342 245.241399 
L 129.537706 240.562144 
L 129.874822 235.88289 
L 129.963035 231.203636 
L 129.809403 226.524381 
L 129.422875 221.845127 
L 128.814569 217.165872 
L 127.998122 212.486618 
L 126.990054 207.807364 
L 125.810126 203.128109 
L 124.481632 198.448855 
L 123.031578 193.769601 
L 121.490722 189.090346 
L 119.89343 184.411092 
L 118.277333 179.731837 
L 116.682766 175.052583 
L 115.151996 170.373329 
L 113.728254 165.694074 
L 112.454594 161.01482 
L 111.372631 156.335565 
L 110.521206 151.656311 
L 109.935048 146.977057 
L 109.643491 142.297802 
L 109.669334 137.618548 
L 110.027894 132.939293 
L 110.726316 128.260039 
L 111.763193 123.580785 
L 113.128518 118.90153 
L 114.803975 114.222276 
L 116.763579 109.543022 
L 118.974606 104.863767 
L 121.3988 100.184513 
L 123.993765 95.505258 
L 126.714491 90.826004 
L 129.514923 86.14675 
L 132.349506 81.467495 
L 135.174615 76.788241 
L 137.949831 72.108986 
L 140.63899 67.429732 
L 143.21098 62.750478 
L 145.640273 58.071223 
L 147.907178 53.391969 
L 149.997839 48.712714 
L 151.904008 44.03346 
L 153.622618 39.354206 
L 155.155206 34.674951 
L 156.507242 29.995697 
L 157.68739 25.316443 
L 158.706761 20.637188 
L 159.578185 15.957934 
L 163.425417 15.957934 
L 163.425417 15.957934 
L 163.425417 20.637188 
L 163.425417 25.316443 
L 163.425417 29.995697 
L 163.425417 34.674951 
L 163.425417 39.354206 
L 163.425417 44.03346 
L 163.425417 48.712714 
L 163.425417 53.391969 
L 163.425417 58.071223 
L 163.425417 62.750478 
L 163.425417 67.429732 
L 163.425417 72.108986 
L 163.425417 76.788241 
L 163.425417 81.467495 
L 163.425417 86.14675 
L 163.425417 90.826004 
L 163.425417 95.505258 
L 163.425417 100.184513 
L 163.425417 104.863767 
L 163.425417 109.543022 
L 163.425417 114.222276 
L 163.425417 118.90153 
L 163.425417 123.580785 
L 163.425417 128.260039 
L 163.425417 132.939293 
L 163.425417 137.618548 
L 163.425417 142.297802 
L 163.425417 146.977057 
L 163.425417 151.656311 
L 163.425417 156.335565 
L 163.425417 161.01482 
L 163.425417 165.694074 
L 163.425417 170.373329 
L 163.425417 175.052583 
L 163.425417 179.731837 
L 163.425417 184.411092 
L 163.425417 189.090346 
L 163.425417 193.769601 
L 163.425417 198.448855 
L 163.425417 203.128109 
L 163.425417 207.807364 
L 163.425417 212.486618 
L 163.425417 217.165872 
L 163.425417 221.845127 
L 163.425417 226.524381 
L 163.425417 231.203636 
L 163.425417 235.88289 
L 163.425417 240.562144 
L 163.425417 245.241399 
L 163.425417 249.920653 
L 163.425417 254.599908 
L 163.425417 259.279162 
L 163.425417 263.958416 
L 163.425417 268.637671 
L 163.425417 273.316925 
L 163.425417 277.99618 
L 163.425417 282.675434 
L 163.425417 287.354688 
L 163.425417 292.033943 
L 163.425417 296.713197 
L 163.425417 301.392451 
L 163.425417 306.071706 
L 163.425417 310.75096 
L 163.425417 315.430215 
L 163.425417 320.109469 
L 163.425417 324.788723 
L 163.425417 329.467978 
L 163.425417 334.147232 
L 163.425417 338.826487 
L 163.425417 343.505741 
L 163.425417 348.184995 
L 163.425417 352.86425 
L 163.425417 357.543504 
L 163.425417 362.222759 
L 163.425417 366.902013 
L 163.425417 371.581267 
L 163.425417 376.260522 
L 163.425417 380.939776 
L 163.425417 385.61903 
L 163.425417 390.298285 
L 163.425417 394.977539 
L 163.425417 399.656794 
L 163.425417 404.336048 
L 163.425417 409.015302 
L 163.425417 413.694557 
L 163.425417 418.373811 
L 163.425417 423.053066 
L 163.425417 427.73232 
L 163.425417 432.411574 
L 163.425417 437.090829 
L 163.425417 441.770083 
L 163.425417 446.449338 
L 163.425417 451.128592 
L 163.425417 455.807846 
L 163.425417 460.487101 
L 163.425417 465.166355 
L 163.425417 469.845609 
L 163.425417 474.524864 
L 163.425417 479.204118 
z
" clip-path="url(#p4cb527ebb2)" style="fill: #b4d4df; stroke: #737373; stroke-width: 1.25"/>
   </g>
   <g id="PolyCollection_2">
    <path d="M 167.956005 499.063433 
L 163.425417 499.063433 
L 163.425417 493.85528 
L 163.425417 488.647127 
L 163.425417 483.438974 
L 163.425417 478.230822 
L 163.425417 473.022669 
L 163.425417 467.814516 
L 163.425417 462.606363 
L 163.425417 457.39821 
L 163.425417 452.190057 
L 163.425417 446.981904 
L 163.425417 441.773751 
L 163.425417 436.565598 
L 163.425417 431.357445 
L 163.425417 426.149292 
L 163.425417 420.941139 
L 163.425417 415.732986 
L 163.425417 410.524833 
L 163.425417 405.316681 
L 163.425417 400.108528 
L 163.425417 394.900375 
L 163.425417 389.692222 
L 163.425417 384.484069 
L 163.425417 379.275916 
L 163.425417 374.067763 
L 163.425417 368.85961 
L 163.425417 363.651457 
L 163.425417 358.443304 
L 163.425417 353.235151 
L 163.425417 348.026998 
L 163.425417 342.818845 
L 163.425417 337.610692 
L 163.425417 332.402539 
L 163.425417 327.194387 
L 163.425417 321.986234 
L 163.425417 316.778081 
L 163.425417 311.569928 
L 163.425417 306.361775 
L 163.425417 301.153622 
L 163.425417 295.945469 
L 163.425417 290.737316 
L 163.425417 285.529163 
L 163.425417 280.32101 
L 163.425417 275.112857 
L 163.425417 269.904704 
L 163.425417 264.696551 
L 163.425417 259.488398 
L 163.425417 254.280245 
L 163.425417 249.072093 
L 163.425417 243.86394 
L 163.425417 238.655787 
L 163.425417 233.447634 
L 163.425417 228.239481 
L 163.425417 223.031328 
L 163.425417 217.823175 
L 163.425417 212.615022 
L 163.425417 207.406869 
L 163.425417 202.198716 
L 163.425417 196.990563 
L 163.425417 191.78241 
L 163.425417 186.574257 
L 163.425417 181.366104 
L 163.425417 176.157951 
L 163.425417 170.949799 
L 163.425417 165.741646 
L 163.425417 160.533493 
L 163.425417 155.32534 
L 163.425417 150.117187 
L 163.425417 144.909034 
L 163.425417 139.700881 
L 163.425417 134.492728 
L 163.425417 129.284575 
L 163.425417 124.076422 
L 163.425417 118.868269 
L 163.425417 113.660116 
L 163.425417 108.451963 
L 163.425417 103.24381 
L 163.425417 98.035658 
L 163.425417 92.827505 
L 163.425417 87.619352 
L 163.425417 82.411199 
L 163.425417 77.203046 
L 163.425417 71.994893 
L 163.425417 66.78674 
L 163.425417 61.578587 
L 163.425417 56.370434 
L 163.425417 51.162281 
L 163.425417 45.954128 
L 163.425417 40.745975 
L 163.425417 35.537822 
L 163.425417 30.329669 
L 163.425417 25.121516 
L 163.425417 19.913364 
L 163.425417 14.705211 
L 163.425417 9.497058 
L 163.425417 4.288905 
L 163.425417 -0.919248 
L 163.425417 -6.127401 
L 163.425417 -11.335554 
L 163.425417 -16.543707 
L 168.301148 -16.543707 
L 168.301148 -16.543707 
L 169.510418 -11.335554 
L 170.950882 -6.127401 
L 172.648294 -0.919248 
L 174.626734 4.288905 
L 176.90733 9.497058 
L 179.506854 14.705211 
L 182.436256 19.913364 
L 185.699212 25.121516 
L 189.290773 30.329669 
L 193.196205 35.537822 
L 197.390123 40.745975 
L 201.836015 45.954128 
L 206.486222 51.162281 
L 211.282455 56.370434 
L 216.156851 61.578587 
L 221.033603 66.78674 
L 225.831085 71.994893 
L 230.464431 77.203046 
L 234.84843 82.411199 
L 238.900619 87.619352 
L 242.544394 92.827505 
L 245.71199 98.035658 
L 248.347138 103.24381 
L 250.407276 108.451963 
L 251.865163 113.660116 
L 252.70982 118.868269 
L 252.94675 124.076422 
L 252.597432 129.284575 
L 251.698136 134.492728 
L 250.298147 139.700881 
L 248.45751 144.909034 
L 246.244451 150.117187 
L 243.732612 155.32534 
L 240.998274 160.533493 
L 238.117697 165.741646 
L 235.164707 170.949799 
L 232.208629 176.157951 
L 229.312624 181.366104 
L 226.53247 186.574257 
L 223.915774 191.78241 
L 221.501603 196.990563 
L 219.32047 202.198716 
L 217.394625 207.406869 
L 215.73856 212.615022 
L 214.359672 217.823175 
L 213.259018 223.031328 
L 212.432082 228.239481 
L 211.869543 233.447634 
L 211.557987 238.655787 
L 211.48056 243.86394 
L 211.617559 249.072093 
L 211.946963 254.280245 
L 212.444917 259.488398 
L 213.08618 264.696551 
L 213.844553 269.904704 
L 214.693298 275.112857 
L 215.605539 280.32101 
L 216.554653 285.529163 
L 217.514636 290.737316 
L 218.460434 295.945469 
L 219.368219 301.153622 
L 220.215598 306.361775 
L 220.981753 311.569928 
L 221.647498 316.778081 
L 222.195265 321.986234 
L 222.60904 327.194387 
L 222.874255 332.402539 
L 222.977684 337.610692 
L 222.907365 342.818845 
L 222.652575 348.026998 
L 222.203896 353.235151 
L 221.553375 358.443304 
L 220.694788 363.651457 
L 219.623994 368.85961 
L 218.339366 374.067763 
L 216.84224 379.275916 
L 215.13736 384.484069 
L 213.233247 389.692222 
L 211.142462 394.900375 
L 208.881698 400.108528 
L 206.471688 405.316681 
L 203.936895 410.524833 
L 201.304994 415.732986 
L 198.606165 420.941139 
L 195.872218 426.149292 
L 193.135616 431.357445 
L 190.428444 436.565598 
L 187.781385 441.773751 
L 185.222769 446.981904 
L 182.777745 452.190057 
L 180.467618 457.39821 
L 178.309394 462.606363 
L 176.315524 467.814516 
L 174.49387 473.022669 
L 172.847863 478.230822 
L 171.376838 483.438974 
L 170.076501 488.647127 
L 168.93949 493.85528 
L 167.956005 499.063433 
z
" clip-path="url(#p4cb527ebb2)" style="fill: #9ce29c; stroke: #737373; stroke-width: 1.25"/>
   </g>
   <g id="PolyCollection_3">
    <path d="M 387.22875 480.11893 
L 381.652621 480.11893 
L 380.338409 475.610383 
L 378.788625 471.101835 
L 376.980063 466.593288 
L 374.891724 462.084741 
L 372.506022 457.576194 
L 369.81006 453.067647 
L 366.796937 448.5591 
L 363.466983 444.050553 
L 359.82888 439.542006 
L 355.900561 435.033459 
L 351.709818 430.524911 
L 347.294555 426.016364 
L 342.702603 421.507817 
L 337.991088 416.99927 
L 333.22532 412.490723 
L 328.477225 407.982176 
L 323.82336 403.473629 
L 319.342602 398.965082 
L 315.113585 394.456535 
L 311.212035 389.947988 
L 307.708114 385.43944 
L 304.663926 380.930893 
L 302.131305 376.422346 
L 300.15002 371.913799 
L 298.746464 367.405252 
L 297.932921 362.896705 
L 297.707417 358.388158 
L 298.054157 353.879611 
L 298.944515 349.371064 
L 300.338485 344.862517 
L 302.186518 340.353969 
L 304.431618 335.845422 
L 307.011577 331.336875 
L 309.861231 326.828328 
L 312.914623 322.319781 
L 316.106967 317.811234 
L 319.376351 313.302687 
L 322.66511 308.79414 
L 325.92085 304.285593 
L 329.097114 299.777046 
L 332.153701 295.268498 
L 335.056693 290.759951 
L 337.778208 286.251404 
L 340.295962 281.742857 
L 342.592689 277.23431 
L 344.655486 272.725763 
L 346.475132 268.217216 
L 348.045442 263.708669 
L 349.3627 259.200122 
L 350.425195 254.691574 
L 351.232889 250.183027 
L 351.787236 245.67448 
L 352.091147 241.165933 
L 352.149095 236.657386 
L 351.967354 232.148839 
L 351.554337 227.640292 
L 350.921014 223.131745 
L 350.081356 218.623198 
L 349.052785 214.114651 
L 347.856559 209.606103 
L 346.51807 205.097556 
L 345.066982 200.589009 
L 343.537193 196.080462 
L 341.96657 191.571915 
L 340.396442 187.063368 
L 338.870838 182.554821 
L 337.435489 178.046274 
L 336.136599 173.537727 
L 335.019455 169.02918 
L 334.126918 164.520632 
L 333.497875 160.012085 
L 333.165734 155.503538 
L 333.157059 150.994991 
L 333.490406 146.486444 
L 334.175465 141.977897 
L 335.212544 137.46935 
L 336.592442 132.960803 
L 338.296735 128.452256 
L 340.298454 123.943709 
L 342.563128 119.435161 
L 345.050133 114.926614 
L 347.714268 110.418067 
L 350.507485 105.90952 
L 353.380654 101.400973 
L 356.285293 96.892426 
L 359.175172 92.383879 
L 362.007703 87.875332 
L 364.74508 83.366785 
L 367.355124 78.858237 
L 369.811804 74.34969 
L 372.095468 69.841143 
L 374.192769 65.332596 
L 376.096355 60.824049 
L 377.804338 56.315502 
L 379.319628 51.806955 
L 380.649149 47.298408 
L 381.803024 42.789861 
L 382.793745 38.281314 
L 383.635399 33.772766 
L 387.22875 33.772766 
L 387.22875 33.772766 
L 387.22875 38.281314 
L 387.22875 42.789861 
L 387.22875 47.298408 
L 387.22875 51.806955 
L 387.22875 56.315502 
L 387.22875 60.824049 
L 387.22875 65.332596 
L 387.22875 69.841143 
L 387.22875 74.34969 
L 387.22875 78.858237 
L 387.22875 83.366785 
L 387.22875 87.875332 
L 387.22875 92.383879 
L 387.22875 96.892426 
L 387.22875 101.400973 
L 387.22875 105.90952 
L 387.22875 110.418067 
L 387.22875 114.926614 
L 387.22875 119.435161 
L 387.22875 123.943709 
L 387.22875 128.452256 
L 387.22875 132.960803 
L 387.22875 137.46935 
L 387.22875 141.977897 
L 387.22875 146.486444 
L 387.22875 150.994991 
L 387.22875 155.503538 
L 387.22875 160.012085 
L 387.22875 164.520632 
L 387.22875 169.02918 
L 387.22875 173.537727 
L 387.22875 178.046274 
L 387.22875 182.554821 
L 387.22875 187.063368 
L 387.22875 191.571915 
L 387.22875 196.080462 
L 387.22875 200.589009 
L 387.22875 205.097556 
L 387.22875 209.606103 
L 387.22875 214.114651 
L 387.22875 218.623198 
L 387.22875 223.131745 
L 387.22875 227.640292 
L 387.22875 232.148839 
L 387.22875 236.657386 
L 387.22875 241.165933 
L 387.22875 245.67448 
L 387.22875 250.183027 
L 387.22875 254.691574 
L 387.22875 259.200122 
L 387.22875 263.708669 
L 387.22875 268.217216 
L 387.22875 272.725763 
L 387.22875 277.23431 
L 387.22875 281.742857 
L 387.22875 286.251404 
L 387.22875 290.759951 
L 387.22875 295.268498 
L 387.22875 299.777046 
L 387.22875 304.285593 
L 387.22875 308.79414 
L 387.22875 313.302687 
L 387.22875 317.811234 
L 387.22875 322.319781 
L 387.22875 326.828328 
L 387.22875 331.336875 
L 387.22875 335.845422 
L 387.22875 340.353969 
L 387.22875 344.862517 
L 387.22875 349.371064 
L 387.22875 353.879611 
L 387.22875 358.388158 
L 387.22875 362.896705 
L 387.22875 367.405252 
L 387.22875 371.913799 
L 387.22875 376.422346 
L 387.22875 380.930893 
L 387.22875 385.43944 
L 387.22875 389.947988 
L 387.22875 394.456535 
L 387.22875 398.965082 
L 387.22875 403.473629 
L 387.22875 407.982176 
L 387.22875 412.490723 
L 387.22875 416.99927 
L 387.22875 421.507817 
L 387.22875 426.016364 
L 387.22875 430.524911 
L 387.22875 435.033459 
L 387.22875 439.542006 
L 387.22875 444.050553 
L 387.22875 448.5591 
L 387.22875 453.067647 
L 387.22875 457.576194 
L 387.22875 462.084741 
L 387.22875 466.593288 
L 387.22875 471.101835 
L 387.22875 475.610383 
L 387.22875 480.11893 
z
" clip-path="url(#p4cb527ebb2)" style="fill: #b4d4df; stroke: #737373; stroke-width: 1.25"/>
   </g>
   <g id="PolyCollection_4">
    <path d="M 391.609036 503.281153 
L 387.22875 503.281153 
L 387.22875 497.914161 
L 387.22875 492.54717 
L 387.22875 487.180179 
L 387.22875 481.813187 
L 387.22875 476.446196 
L 387.22875 471.079205 
L 387.22875 465.712213 
L 387.22875 460.345222 
L 387.22875 454.978231 
L 387.22875 449.61124 
L 387.22875 444.244248 
L 387.22875 438.877257 
L 387.22875 433.510266 
L 387.22875 428.143274 
L 387.22875 422.776283 
L 387.22875 417.409292 
L 387.22875 412.0423 
L 387.22875 406.675309 
L 387.22875 401.308318 
L 387.22875 395.941326 
L 387.22875 390.574335 
L 387.22875 385.207344 
L 387.22875 379.840352 
L 387.22875 374.473361 
L 387.22875 369.10637 
L 387.22875 363.739378 
L 387.22875 358.372387 
L 387.22875 353.005396 
L 387.22875 347.638404 
L 387.22875 342.271413 
L 387.22875 336.904422 
L 387.22875 331.53743 
L 387.22875 326.170439 
L 387.22875 320.803448 
L 387.22875 315.436456 
L 387.22875 310.069465 
L 387.22875 304.702474 
L 387.22875 299.335482 
L 387.22875 293.968491 
L 387.22875 288.6015 
L 387.22875 283.234509 
L 387.22875 277.867517 
L 387.22875 272.500526 
L 387.22875 267.133535 
L 387.22875 261.766543 
L 387.22875 256.399552 
L 387.22875 251.032561 
L 387.22875 245.665569 
L 387.22875 240.298578 
L 387.22875 234.931587 
L 387.22875 229.564595 
L 387.22875 224.197604 
L 387.22875 218.830613 
L 387.22875 213.463621 
L 387.22875 208.09663 
L 387.22875 202.729639 
L 387.22875 197.362647 
L 387.22875 191.995656 
L 387.22875 186.628665 
L 387.22875 181.261673 
L 387.22875 175.894682 
L 387.22875 170.527691 
L 387.22875 165.160699 
L 387.22875 159.793708 
L 387.22875 154.426717 
L 387.22875 149.059725 
L 387.22875 143.692734 
L 387.22875 138.325743 
L 387.22875 132.958751 
L 387.22875 127.59176 
L 387.22875 122.224769 
L 387.22875 116.857778 
L 387.22875 111.490786 
L 387.22875 106.123795 
L 387.22875 100.756804 
L 387.22875 95.389812 
L 387.22875 90.022821 
L 387.22875 84.65583 
L 387.22875 79.288838 
L 387.22875 73.921847 
L 387.22875 68.554856 
L 387.22875 63.187864 
L 387.22875 57.820873 
L 387.22875 52.453882 
L 387.22875 47.08689 
L 387.22875 41.719899 
L 387.22875 36.352908 
L 387.22875 30.985916 
L 387.22875 25.618925 
L 387.22875 20.251934 
L 387.22875 14.884942 
L 387.22875 9.517951 
L 387.22875 4.15096 
L 387.22875 -1.216032 
L 387.22875 -6.583023 
L 387.22875 -11.950014 
L 387.22875 -17.317006 
L 387.22875 -22.683997 
L 387.22875 -28.050988 
L 392.369624 -28.050988 
L 392.369624 -28.050988 
L 393.614017 -22.683997 
L 395.08895 -17.317006 
L 396.818532 -11.950014 
L 398.824889 -6.583023 
L 401.12691 -1.216032 
L 403.738903 4.15096 
L 406.669201 9.517951 
L 409.918817 14.884942 
L 413.480201 20.251934 
L 417.336222 25.618925 
L 421.459438 30.985916 
L 425.811747 36.352908 
L 430.344498 41.719899 
L 434.9991 47.08689 
L 439.708152 52.453882 
L 444.397094 57.820873 
L 448.986324 63.187864 
L 453.393712 68.554856 
L 457.537398 73.921847 
L 461.338739 79.288838 
L 464.72526 84.65583 
L 467.633442 90.022821 
L 470.011203 95.389812 
L 471.819919 100.756804 
L 473.035891 106.123795 
L 473.651164 111.490786 
L 473.673663 116.857778 
L 473.126651 122.224769 
L 472.047553 127.59176 
L 470.486229 132.958751 
L 468.5028 138.325743 
L 466.165173 143.692734 
L 463.5464 149.059725 
L 460.722019 154.426717 
L 457.767508 159.793708 
L 454.755971 165.160699 
L 451.75614 170.527691 
L 448.830766 175.894682 
L 446.035416 181.261673 
L 443.41769 186.628665 
L 441.016825 191.995656 
L 438.863646 197.362647 
L 436.98081 202.729639 
L 435.383265 208.09663 
L 434.078861 213.463621 
L 433.069061 218.830613 
L 432.349664 224.197604 
L 431.911541 229.564595 
L 431.741306 234.931587 
L 431.82194 240.298578 
L 432.133348 245.665569 
L 432.652849 251.032561 
L 433.355618 256.399552 
L 434.215098 261.766543 
L 435.203383 267.133535 
L 436.291599 272.500526 
L 437.45029 277.867517 
L 438.649798 283.234509 
L 439.860655 288.6015 
L 441.053965 293.968491 
L 442.201761 299.335482 
L 443.277344 304.702474 
L 444.255564 310.069465 
L 445.113063 315.436456 
L 445.828453 320.803448 
L 446.382449 326.170439 
L 446.75795 331.53743 
L 446.940104 336.904422 
L 446.916349 342.271413 
L 446.676468 347.638404 
L 446.212672 353.005396 
L 445.519709 358.372387 
L 444.595021 363.739378 
L 443.438932 369.10637 
L 442.054858 374.473361 
L 440.449515 379.840352 
L 438.633091 385.207344 
L 436.619357 390.574335 
L 434.42568 395.941326 
L 432.072907 401.308318 
L 429.585107 406.675309 
L 426.989159 412.0423 
L 424.314182 417.409292 
L 421.590837 422.776283 
L 418.850528 428.143274 
L 416.124531 433.510266 
L 413.443106 438.877257 
L 410.834647 444.244248 
L 408.3249 449.61124 
L 405.936307 454.978231 
L 403.687501 460.345222 
L 401.592976 465.712213 
L 399.662939 471.079205 
L 397.903348 476.446196 
L 396.316107 481.813187 
L 394.899413 487.180179 
L 393.64821 492.54717 
L 392.554724 497.914161 
L 391.609036 503.281153 
z
" clip-path="url(#p4cb527ebb2)" style="fill: #9ce29c; stroke: #737373; stroke-width: 1.25"/>
   </g>
   <g id="PolyCollection_5">
    <path d="M 611.032083 464.218829 
L 604.552463 464.218829 
L 603.129719 459.9322 
L 601.47532 455.64557 
L 599.571035 451.358941 
L 597.40158 447.072311 
L 594.95567 442.785682 
L 592.22709 438.499052 
L 589.215717 434.212423 
L 585.928424 429.925793 
L 582.379818 425.639164 
L 578.592737 421.352534 
L 574.598447 417.065905 
L 570.436513 412.779275 
L 566.154288 408.492646 
L 561.806033 404.206016 
L 557.451673 399.919387 
L 553.155219 395.632758 
L 548.982924 391.346128 
L 545.001249 387.059499 
L 541.274722 382.772869 
L 537.863819 378.48624 
L 534.822941 374.19961 
L 532.198616 369.912981 
L 530.028007 365.626351 
L 528.337796 361.339722 
L 527.143502 357.053092 
L 526.449249 352.766463 
L 526.248001 348.479833 
L 526.522201 344.193204 
L 527.244803 339.906574 
L 528.380591 335.619945 
L 529.887727 331.333315 
L 531.719414 327.046686 
L 533.825604 322.760056 
L 536.154654 318.473427 
L 538.654848 314.186797 
L 541.275744 309.900168 
L 543.969288 305.613538 
L 546.690663 301.326909 
L 549.398894 297.040279 
L 552.057176 292.75365 
L 554.632986 288.46702 
L 557.097983 284.180391 
L 559.42775 279.893762 
L 561.601425 275.607132 
L 563.601253 271.320503 
L 565.412122 267.033873 
L 567.021117 262.747244 
L 568.417131 258.460614 
L 569.590567 254.173985 
L 570.533155 249.887355 
L 571.23791 245.600726 
L 571.699217 241.314096 
L 571.913077 237.027467 
L 571.877469 232.740837 
L 571.592826 228.454208 
L 571.0626 224.167578 
L 570.293862 219.880949 
L 569.297901 215.594319 
L 568.090776 211.30769 
L 566.693756 207.02106 
L 565.133611 202.734431 
L 563.442689 198.447801 
L 561.65876 194.161172 
L 559.824574 189.874542 
L 557.98715 185.587913 
L 556.196762 181.301283 
L 554.505686 177.014654 
L 552.966707 172.728025 
L 551.631478 168.441395 
L 550.548785 164.154766 
L 549.7628 159.868136 
L 549.31143 155.581507 
L 549.224832 151.294877 
L 549.524183 147.008248 
L 550.220788 142.721618 
L 551.315566 138.434989 
L 552.798961 134.148359 
L 554.651275 129.86173 
L 556.843421 125.5751 
L 559.338052 121.288471 
L 562.090999 117.001841 
L 565.052952 112.715212 
L 568.171294 108.428582 
L 571.391979 104.141953 
L 574.661377 99.855323 
L 577.927996 95.568694 
L 581.143995 91.282064 
L 584.266443 86.995435 
L 587.25827 82.708805 
L 590.088909 78.422176 
L 592.734608 74.135546 
L 595.178445 69.848917 
L 597.410067 65.562288 
L 599.425209 61.275658 
L 601.22503 56.989029 
L 602.815334 52.702399 
L 604.205718 48.41577 
L 605.408701 44.12914 
L 606.43888 39.842511 
L 611.032083 39.842511 
L 611.032083 39.842511 
L 611.032083 44.12914 
L 611.032083 48.41577 
L 611.032083 52.702399 
L 611.032083 56.989029 
L 611.032083 61.275658 
L 611.032083 65.562288 
L 611.032083 69.848917 
L 611.032083 74.135546 
L 611.032083 78.422176 
L 611.032083 82.708805 
L 611.032083 86.995435 
L 611.032083 91.282064 
L 611.032083 95.568694 
L 611.032083 99.855323 
L 611.032083 104.141953 
L 611.032083 108.428582 
L 611.032083 112.715212 
L 611.032083 117.001841 
L 611.032083 121.288471 
L 611.032083 125.5751 
L 611.032083 129.86173 
L 611.032083 134.148359 
L 611.032083 138.434989 
L 611.032083 142.721618 
L 611.032083 147.008248 
L 611.032083 151.294877 
L 611.032083 155.581507 
L 611.032083 159.868136 
L 611.032083 164.154766 
L 611.032083 168.441395 
L 611.032083 172.728025 
L 611.032083 177.014654 
L 611.032083 181.301283 
L 611.032083 185.587913 
L 611.032083 189.874542 
L 611.032083 194.161172 
L 611.032083 198.447801 
L 611.032083 202.734431 
L 611.032083 207.02106 
L 611.032083 211.30769 
L 611.032083 215.594319 
L 611.032083 219.880949 
L 611.032083 224.167578 
L 611.032083 228.454208 
L 611.032083 232.740837 
L 611.032083 237.027467 
L 611.032083 241.314096 
L 611.032083 245.600726 
L 611.032083 249.887355 
L 611.032083 254.173985 
L 611.032083 258.460614 
L 611.032083 262.747244 
L 611.032083 267.033873 
L 611.032083 271.320503 
L 611.032083 275.607132 
L 611.032083 279.893762 
L 611.032083 284.180391 
L 611.032083 288.46702 
L 611.032083 292.75365 
L 611.032083 297.040279 
L 611.032083 301.326909 
L 611.032083 305.613538 
L 611.032083 309.900168 
L 611.032083 314.186797 
L 611.032083 318.473427 
L 611.032083 322.760056 
L 611.032083 327.046686 
L 611.032083 331.333315 
L 611.032083 335.619945 
L 611.032083 339.906574 
L 611.032083 344.193204 
L 611.032083 348.479833 
L 611.032083 352.766463 
L 611.032083 357.053092 
L 611.032083 361.339722 
L 611.032083 365.626351 
L 611.032083 369.912981 
L 611.032083 374.19961 
L 611.032083 378.48624 
L 611.032083 382.772869 
L 611.032083 387.059499 
L 611.032083 391.346128 
L 611.032083 395.632758 
L 611.032083 399.919387 
L 611.032083 404.206016 
L 611.032083 408.492646 
L 611.032083 412.779275 
L 611.032083 417.065905 
L 611.032083 421.352534 
L 611.032083 425.639164 
L 611.032083 429.925793 
L 611.032083 434.212423 
L 611.032083 438.499052 
L 611.032083 442.785682 
L 611.032083 447.072311 
L 611.032083 451.358941 
L 611.032083 455.64557 
L 611.032083 459.9322 
L 611.032083 464.218829 
z
" clip-path="url(#p4cb527ebb2)" style="fill: #b4d4df; stroke: #737373; stroke-width: 1.25"/>
   </g>
   <g id="PolyCollection_6">
    <path d="M 615.671134 509.56918 
L 611.032083 509.56918 
L 611.032083 504.032943 
L 611.032083 498.496706 
L 611.032083 492.960469 
L 611.032083 487.424232 
L 611.032083 481.887995 
L 611.032083 476.351759 
L 611.032083 470.815522 
L 611.032083 465.279285 
L 611.032083 459.743048 
L 611.032083 454.206811 
L 611.032083 448.670574 
L 611.032083 443.134338 
L 611.032083 437.598101 
L 611.032083 432.061864 
L 611.032083 426.525627 
L 611.032083 420.98939 
L 611.032083 415.453153 
L 611.032083 409.916917 
L 611.032083 404.38068 
L 611.032083 398.844443 
L 611.032083 393.308206 
L 611.032083 387.771969 
L 611.032083 382.235732 
L 611.032083 376.699496 
L 611.032083 371.163259 
L 611.032083 365.627022 
L 611.032083 360.090785 
L 611.032083 354.554548 
L 611.032083 349.018311 
L 611.032083 343.482075 
L 611.032083 337.945838 
L 611.032083 332.409601 
L 611.032083 326.873364 
L 611.032083 321.337127 
L 611.032083 315.80089 
L 611.032083 310.264654 
L 611.032083 304.728417 
L 611.032083 299.19218 
L 611.032083 293.655943 
L 611.032083 288.119706 
L 611.032083 282.583469 
L 611.032083 277.047233 
L 611.032083 271.510996 
L 611.032083 265.974759 
L 611.032083 260.438522 
L 611.032083 254.902285 
L 611.032083 249.366048 
L 611.032083 243.829812 
L 611.032083 238.293575 
L 611.032083 232.757338 
L 611.032083 227.221101 
L 611.032083 221.684864 
L 611.032083 216.148627 
L 611.032083 210.612391 
L 611.032083 205.076154 
L 611.032083 199.539917 
L 611.032083 194.00368 
L 611.032083 188.467443 
L 611.032083 182.931206 
L 611.032083 177.394969 
L 611.032083 171.858733 
L 611.032083 166.322496 
L 611.032083 160.786259 
L 611.032083 155.250022 
L 611.032083 149.713785 
L 611.032083 144.177548 
L 611.032083 138.641312 
L 611.032083 133.105075 
L 611.032083 127.568838 
L 611.032083 122.032601 
L 611.032083 116.496364 
L 611.032083 110.960127 
L 611.032083 105.423891 
L 611.032083 99.887654 
L 611.032083 94.351417 
L 611.032083 88.81518 
L 611.032083 83.278943 
L 611.032083 77.742706 
L 611.032083 72.20647 
L 611.032083 66.670233 
L 611.032083 61.133996 
L 611.032083 55.597759 
L 611.032083 50.061522 
L 611.032083 44.525285 
L 611.032083 38.989049 
L 611.032083 33.452812 
L 611.032083 27.916575 
L 611.032083 22.380338 
L 611.032083 16.844101 
L 611.032083 11.307864 
L 611.032083 5.771628 
L 611.032083 0.235391 
L 611.032083 -5.300846 
L 611.032083 -10.837083 
L 611.032083 -16.37332 
L 611.032083 -21.909557 
L 611.032083 -27.445793 
L 611.032083 -32.98203 
L 611.032083 -38.518267 
L 618.102147 -38.518267 
L 618.102147 -38.518267 
L 619.680122 -32.98203 
L 621.519031 -27.445793 
L 623.639484 -21.909557 
L 626.058501 -16.37332 
L 628.788205 -10.837083 
L 631.834497 -5.300846 
L 635.195789 0.235391 
L 638.861876 5.771628 
L 642.813019 11.307864 
L 647.01935 16.844101 
L 651.440636 22.380338 
L 656.026504 27.916575 
L 660.717138 33.452812 
L 665.444476 38.989049 
L 670.133889 44.525285 
L 674.706297 50.061522 
L 679.080644 55.597759 
L 683.17662 61.133996 
L 686.917508 66.670233 
L 690.233008 72.20647 
L 693.061891 77.742706 
L 695.354338 83.278943 
L 697.073834 88.81518 
L 698.198512 94.351417 
L 698.721881 99.887654 
L 698.652894 105.423891 
L 698.015368 110.960127 
L 696.846794 116.496364 
L 695.196624 122.032601 
L 693.124134 127.568838 
L 690.695988 133.105075 
L 687.983654 138.641312 
L 685.060799 144.177548 
L 682.000789 149.713785 
L 678.87442 155.250022 
L 675.747959 160.786259 
L 672.681556 166.322496 
L 669.728074 171.858733 
L 666.932328 177.394969 
L 664.330724 182.931206 
L 661.951261 188.467443 
L 659.813841 194.00368 
L 657.930817 199.539917 
L 656.307729 205.076154 
L 654.944148 210.612391 
L 653.834583 216.148627 
L 652.969389 221.684864 
L 652.335642 227.221101 
L 651.917947 232.757338 
L 651.699168 238.293575 
L 651.661054 243.829812 
L 651.784773 249.366048 
L 652.051338 254.902285 
L 652.441943 260.438522 
L 652.938208 265.974759 
L 653.522331 271.510996 
L 654.177174 277.047233 
L 654.886263 282.583469 
L 655.633727 288.119706 
L 656.404181 293.655943 
L 657.182558 299.19218 
L 657.953912 304.728417 
L 658.703204 310.264654 
L 659.4151 315.80089 
L 660.073799 321.337127 
L 660.662921 326.873364 
L 661.165478 332.409601 
L 661.563953 337.945838 
L 661.840503 343.482075 
L 661.977287 349.018311 
L 661.956925 354.554548 
L 661.763071 360.090785 
L 661.381067 365.627022 
L 660.798654 371.163259 
L 660.006679 376.699496 
L 658.999765 382.235732 
L 657.776877 387.771969 
L 656.341744 393.308206 
L 654.703094 398.844443 
L 652.874676 404.38068 
L 650.875045 409.916917 
L 648.727124 415.453153 
L 646.457551 420.98939 
L 644.095845 426.525627 
L 641.673439 432.061864 
L 639.22263 437.598101 
L 636.775508 443.134338 
L 634.362922 448.670574 
L 632.013534 454.206811 
L 629.753008 459.743048 
L 627.603378 465.279285 
L 625.582602 470.815522 
L 623.704321 476.351759 
L 621.977818 481.887995 
L 620.408153 487.424232 
L 618.996463 492.960469 
L 617.74038 498.496706 
L 616.634537 504.032943 
L 615.671134 509.56918 
z
" clip-path="url(#p4cb527ebb2)" style="fill: #9ce29c; stroke: #737373; stroke-width: 1.25"/>
   </g>
   <g id="patch_3">
    <path d="M 163.425417 480.246875 
L 163.425417 480.246875 
L 163.425417 480.246875 
L 163.425417 480.246875 
z
" clip-path="url(#p4cb527ebb2)" style="fill: #b4d4df; stroke: #737373; stroke-width: 1.25; stroke-linejoin: miter"/>
   </g>
   <g id="patch_4">
    <path d="M 163.425417 480.246875 
L 163.425417 480.246875 
L 163.425417 480.246875 
L 163.425417 480.246875 
z
" clip-path="url(#p4cb527ebb2)" style="fill: #9ce29c; stroke: #737373; stroke-width: 1.25; stroke-linejoin: miter"/>
   </g>
   <g id="matplotlib.axis_1">
    <g id="xtick_1">
     <g id="line2d_1">
      <path d="M 163.425417 392.676875 
L 163.425417 42.396875 
" clip-path="url(#p4cb527ebb2)" style="fill: none; stroke-dasharray: 2.96,1.28; stroke-dashoffset: 0; stroke: #b0b0b0; stroke-opacity: 0.7; stroke-width: 0.8"/>
     </g>
     <g id="text_1">
      <!-- English -->
      <g transform="translate(130.928385 413.354062) scale(0.18 -0.18)">
       <defs>
        <path id="DejaVuSans-45" d="M 628 4666 
L 3578 4666 
L 3578 4134 
L 1259 4134 
L 1259 2753 
L 3481 2753 
L 3481 2222 
L 1259 2222 
L 1259 531 
L 3634 531 
L 3634 0 
L 628 0 
L 628 4666 
z
" transform="scale(0.015625)"/>
        <path id="DejaVuSans-6e" d="M 3513 2113 
L 3513 0 
L 2938 0 
L 2938 2094 
Q 2938 2591 2744 2837 
Q 2550 3084 2163 3084 
Q 1697 3084 1428 2787 
Q 1159 2491 1159 1978 
L 1159 0 
L 581 0 
L 581 3500 
L 1159 3500 
L 1159 2956 
Q 1366 3272 1645 3428 
Q 1925 3584 2291 3584 
Q 2894 3584 3203 3211 
Q 3513 2838 3513 2113 
z
" transform="scale(0.015625)"/>
        <path id="DejaVuSans-67" d="M 2906 1791 
Q 2906 2416 2648 2759 
Q 2391 3103 1925 3103 
Q 1463 3103 1205 2759 
Q 947 2416 947 1791 
Q 947 1169 1205 825 
Q 1463 481 1925 481 
Q 2391 481 2648 825 
Q 2906 1169 2906 1791 
z
M 3481 434 
Q 3481 -459 3084 -895 
Q 2688 -1331 1869 -1331 
Q 1566 -1331 1297 -1286 
Q 1028 -1241 775 -1147 
L 775 -588 
Q 1028 -725 1275 -790 
Q 1522 -856 1778 -856 
Q 2344 -856 2625 -561 
Q 2906 -266 2906 331 
L 2906 616 
Q 2728 306 2450 153 
Q 2172 0 1784 0 
Q 1141 0 747 490 
Q 353 981 353 1791 
Q 353 2603 747 3093 
Q 1141 3584 1784 3584 
Q 2172 3584 2450 3431 
Q 2728 3278 2906 2969 
L 2906 3500 
L 3481 3500 
L 3481 434 
z
" transform="scale(0.015625)"/>
        <path id="DejaVuSans-6c" d="M 603 4863 
L 1178 4863 
L 1178 0 
L 603 0 
L 603 4863 
z
" transform="scale(0.015625)"/>
        <path id="DejaVuSans-69" d="M 603 3500 
L 1178 3500 
L 1178 0 
L 603 0 
L 603 3500 
z
M 603 4863 
L 1178 4863 
L 1178 4134 
L 603 4134 
L 603 4863 
z
" transform="scale(0.015625)"/>
        <path id="DejaVuSans-73" d="M 2834 3397 
L 2834 2853 
Q 2591 2978 2328 3040 
Q 2066 3103 1784 3103 
Q 1356 3103 1142 2972 
Q 928 2841 928 2578 
Q 928 2378 1081 2264 
Q 1234 2150 1697 2047 
L 1894 2003 
Q 2506 1872 2764 1633 
Q 3022 1394 3022 966 
Q 3022 478 2636 193 
Q 2250 -91 1575 -91 
Q 1294 -91 989 -36 
Q 684 19 347 128 
L 347 722 
Q 666 556 975 473 
Q 1284 391 1588 391 
Q 1994 391 2212 530 
Q 2431 669 2431 922 
Q 2431 1156 2273 1281 
Q 2116 1406 1581 1522 
L 1381 1569 
Q 847 1681 609 1914 
Q 372 2147 372 2553 
Q 372 3047 722 3315 
Q 1072 3584 1716 3584 
Q 2034 3584 2315 3537 
Q 2597 3491 2834 3397 
z
" transform="scale(0.015625)"/>
        <path id="DejaVuSans-68" d="M 3513 2113 
L 3513 0 
L 2938 0 
L 2938 2094 
Q 2938 2591 2744 2837 
Q 2550 3084 2163 3084 
Q 1697 3084 1428 2787 
Q 1159 2491 1159 1978 
L 1159 0 
L 581 0 
L 581 4863 
L 1159 4863 
L 1159 2956 
Q 1366 3272 1645 3428 
Q 1925 3584 2291 3584 
Q 2894 3584 3203 3211 
Q 3513 2838 3513 2113 
z
" transform="scale(0.015625)"/>
       </defs>
       <use xlink:href="#DejaVuSans-45"/>
       <use xlink:href="#DejaVuSans-6e" x="63.183594"/>
       <use xlink:href="#DejaVuSans-67" x="126.5625"/>
       <use xlink:href="#DejaVuSans-6c" x="190.039062"/>
       <use xlink:href="#DejaVuSans-69" x="217.822266"/>
       <use xlink:href="#DejaVuSans-73" x="245.605469"/>
       <use xlink:href="#DejaVuSans-68" x="297.705078"/>
      </g>
     </g>
    </g>
    <g id="xtick_2">
     <g id="line2d_2">
      <path d="M 387.22875 392.676875 
L 387.22875 42.396875 
" clip-path="url(#p4cb527ebb2)" style="fill: none; stroke-dasharray: 2.96,1.28; stroke-dashoffset: 0; stroke: #b0b0b0; stroke-opacity: 0.7; stroke-width: 0.8"/>
     </g>
     <g id="text_2">
      <!-- Korean -->
      <g transform="translate(356.015625 413.354062) scale(0.18 -0.18)">
       <defs>
        <path id="DejaVuSans-4b" d="M 628 4666 
L 1259 4666 
L 1259 2694 
L 3353 4666 
L 4166 4666 
L 1850 2491 
L 4331 0 
L 3500 0 
L 1259 2247 
L 1259 0 
L 628 0 
L 628 4666 
z
" transform="scale(0.015625)"/>
        <path id="DejaVuSans-6f" d="M 1959 3097 
Q 1497 3097 1228 2736 
Q 959 2375 959 1747 
Q 959 1119 1226 758 
Q 1494 397 1959 397 
Q 2419 397 2687 759 
Q 2956 1122 2956 1747 
Q 2956 2369 2687 2733 
Q 2419 3097 1959 3097 
z
M 1959 3584 
Q 2709 3584 3137 3096 
Q 3566 2609 3566 1747 
Q 3566 888 3137 398 
Q 2709 -91 1959 -91 
Q 1206 -91 779 398 
Q 353 888 353 1747 
Q 353 2609 779 3096 
Q 1206 3584 1959 3584 
z
" transform="scale(0.015625)"/>
        <path id="DejaVuSans-72" d="M 2631 2963 
Q 2534 3019 2420 3045 
Q 2306 3072 2169 3072 
Q 1681 3072 1420 2755 
Q 1159 2438 1159 1844 
L 1159 0 
L 581 0 
L 581 3500 
L 1159 3500 
L 1159 2956 
Q 1341 3275 1631 3429 
Q 1922 3584 2338 3584 
Q 2397 3584 2469 3576 
Q 2541 3569 2628 3553 
L 2631 2963 
z
" transform="scale(0.015625)"/>
        <path id="DejaVuSans-65" d="M 3597 1894 
L 3597 1613 
L 953 1613 
Q 991 1019 1311 708 
Q 1631 397 2203 397 
Q 2534 397 2845 478 
Q 3156 559 3463 722 
L 3463 178 
Q 3153 47 2828 -22 
Q 2503 -91 2169 -91 
Q 1331 -91 842 396 
Q 353 884 353 1716 
Q 353 2575 817 3079 
Q 1281 3584 2069 3584 
Q 2775 3584 3186 3129 
Q 3597 2675 3597 1894 
z
M 3022 2063 
Q 3016 2534 2758 2815 
Q 2500 3097 2075 3097 
Q 1594 3097 1305 2825 
Q 1016 2553 972 2059 
L 3022 2063 
z
" transform="scale(0.015625)"/>
        <path id="DejaVuSans-61" d="M 2194 1759 
Q 1497 1759 1228 1600 
Q 959 1441 959 1056 
Q 959 750 1161 570 
Q 1363 391 1709 391 
Q 2188 391 2477 730 
Q 2766 1069 2766 1631 
L 2766 1759 
L 2194 1759 
z
M 3341 1997 
L 3341 0 
L 2766 0 
L 2766 531 
Q 2569 213 2275 61 
Q 1981 -91 1556 -91 
Q 1019 -91 701 211 
Q 384 513 384 1019 
Q 384 1609 779 1909 
Q 1175 2209 1959 2209 
L 2766 2209 
L 2766 2266 
Q 2766 2663 2505 2880 
Q 2244 3097 1772 3097 
Q 1472 3097 1187 3025 
Q 903 2953 641 2809 
L 641 3341 
Q 956 3463 1253 3523 
Q 1550 3584 1831 3584 
Q 2591 3584 2966 3190 
Q 3341 2797 3341 1997 
z
" transform="scale(0.015625)"/>
       </defs>
       <use xlink:href="#DejaVuSans-4b"/>
       <use xlink:href="#DejaVuSans-6f" x="60.576172"/>
       <use xlink:href="#DejaVuSans-72" x="121.757812"/>
       <use xlink:href="#DejaVuSans-65" x="160.621094"/>
       <use xlink:href="#DejaVuSans-61" x="222.144531"/>
       <use xlink:href="#DejaVuSans-6e" x="283.423828"/>
      </g>
     </g>
    </g>
    <g id="xtick_3">
     <g id="line2d_3">
      <path d="M 611.032083 392.676875 
L 611.032083 42.396875 
" clip-path="url(#p4cb527ebb2)" style="fill: none; stroke-dasharray: 2.96,1.28; stroke-dashoffset: 0; stroke: #b0b0b0; stroke-opacity: 0.7; stroke-width: 0.8"/>
     </g>
     <g id="text_3">
      <!-- Turkish -->
      <g transform="translate(579.388646 413.354062) scale(0.18 -0.18)">
       <defs>
        <path id="DejaVuSans-54" d="M -19 4666 
L 3928 4666 
L 3928 4134 
L 2272 4134 
L 2272 0 
L 1638 0 
L 1638 4134 
L -19 4134 
L -19 4666 
z
" transform="scale(0.015625)"/>
        <path id="DejaVuSans-75" d="M 544 1381 
L 544 3500 
L 1119 3500 
L 1119 1403 
Q 1119 906 1312 657 
Q 1506 409 1894 409 
Q 2359 409 2629 706 
Q 2900 1003 2900 1516 
L 2900 3500 
L 3475 3500 
L 3475 0 
L 2900 0 
L 2900 538 
Q 2691 219 2414 64 
Q 2138 -91 1772 -91 
Q 1169 -91 856 284 
Q 544 659 544 1381 
z
M 1991 3584 
L 1991 3584 
z
" transform="scale(0.015625)"/>
        <path id="DejaVuSans-6b" d="M 581 4863 
L 1159 4863 
L 1159 1991 
L 2875 3500 
L 3609 3500 
L 1753 1863 
L 3688 0 
L 2938 0 
L 1159 1709 
L 1159 0 
L 581 0 
L 581 4863 
z
" transform="scale(0.015625)"/>
       </defs>
       <use xlink:href="#DejaVuSans-54"/>
       <use xlink:href="#DejaVuSans-75" x="45.958984"/>
       <use xlink:href="#DejaVuSans-72" x="109.337891"/>
       <use xlink:href="#DejaVuSans-6b" x="150.451172"/>
       <use xlink:href="#DejaVuSans-69" x="208.361328"/>
       <use xlink:href="#DejaVuSans-73" x="236.144531"/>
       <use xlink:href="#DejaVuSans-68" x="288.244141"/>
      </g>
     </g>
    </g>
   </g>
   <g id="matplotlib.axis_2">
    <g id="ytick_1">
     <g id="line2d_4">
      <path d="M 51.52375 392.676875 
L 722.93375 392.676875 
" clip-path="url(#p4cb527ebb2)" style="fill: none; stroke-dasharray: 2.96,1.28; stroke-dashoffset: 0; stroke: #b0b0b0; stroke-opacity: 0.7; stroke-width: 0.8"/>
     </g>
     <g id="line2d_5">
      <defs>
       <path id="meaa52e4b4b" d="M 0 0 
L -3.5 0 
" style="stroke: #000000; stroke-width: 0.8"/>
      </defs>
      <g>
       <use xlink:href="#meaa52e4b4b" x="51.52375" y="392.676875" style="stroke: #000000; stroke-width: 0.8"/>
      </g>
     </g>
     <g id="text_4">
      <!-- 1.0 -->
      <g transform="translate(28.620625 396.476094) scale(0.1 -0.1)">
       <defs>
        <path id="DejaVuSans-31" d="M 794 531 
L 1825 531 
L 1825 4091 
L 703 3866 
L 703 4441 
L 1819 4666 
L 2450 4666 
L 2450 531 
L 3481 531 
L 3481 0 
L 794 0 
L 794 531 
z
" transform="scale(0.015625)"/>
        <path id="DejaVuSans-2e" d="M 684 794 
L 1344 794 
L 1344 0 
L 684 0 
L 684 794 
z
" transform="scale(0.015625)"/>
        <path id="DejaVuSans-30" d="M 2034 4250 
Q 1547 4250 1301 3770 
Q 1056 3291 1056 2328 
Q 1056 1369 1301 889 
Q 1547 409 2034 409 
Q 2525 409 2770 889 
Q 3016 1369 3016 2328 
Q 3016 3291 2770 3770 
Q 2525 4250 2034 4250 
z
M 2034 4750 
Q 2819 4750 3233 4129 
Q 3647 3509 3647 2328 
Q 3647 1150 3233 529 
Q 2819 -91 2034 -91 
Q 1250 -91 836 529 
Q 422 1150 422 2328 
Q 422 3509 836 4129 
Q 1250 4750 2034 4750 
z
" transform="scale(0.015625)"/>
       </defs>
       <use xlink:href="#DejaVuSans-31"/>
       <use xlink:href="#DejaVuSans-2e" x="63.623047"/>
       <use xlink:href="#DejaVuSans-30" x="95.410156"/>
      </g>
     </g>
    </g>
    <g id="ytick_2">
     <g id="line2d_6">
      <path d="M 51.52375 348.891875 
L 722.93375 348.891875 
" clip-path="url(#p4cb527ebb2)" style="fill: none; stroke-dasharray: 2.96,1.28; stroke-dashoffset: 0; stroke: #b0b0b0; stroke-opacity: 0.7; stroke-width: 0.8"/>
     </g>
     <g id="line2d_7">
      <g>
       <use xlink:href="#meaa52e4b4b" x="51.52375" y="348.891875" style="stroke: #000000; stroke-width: 0.8"/>
      </g>
     </g>
     <g id="text_5">
      <!-- 1.5 -->
      <g transform="translate(28.620625 352.691094) scale(0.1 -0.1)">
       <defs>
        <path id="DejaVuSans-35" d="M 691 4666 
L 3169 4666 
L 3169 4134 
L 1269 4134 
L 1269 2991 
Q 1406 3038 1543 3061 
Q 1681 3084 1819 3084 
Q 2600 3084 3056 2656 
Q 3513 2228 3513 1497 
Q 3513 744 3044 326 
Q 2575 -91 1722 -91 
Q 1428 -91 1123 -41 
Q 819 9 494 109 
L 494 744 
Q 775 591 1075 516 
Q 1375 441 1709 441 
Q 2250 441 2565 725 
Q 2881 1009 2881 1497 
Q 2881 1984 2565 2268 
Q 2250 2553 1709 2553 
Q 1456 2553 1204 2497 
Q 953 2441 691 2322 
L 691 4666 
z
" transform="scale(0.015625)"/>
       </defs>
       <use xlink:href="#DejaVuSans-31"/>
       <use xlink:href="#DejaVuSans-2e" x="63.623047"/>
       <use xlink:href="#DejaVuSans-35" x="95.410156"/>
      </g>
     </g>
    </g>
    <g id="ytick_3">
     <g id="line2d_8">
      <path d="M 51.52375 305.106875 
L 722.93375 305.106875 
" clip-path="url(#p4cb527ebb2)" style="fill: none; stroke-dasharray: 2.96,1.28; stroke-dashoffset: 0; stroke: #b0b0b0; stroke-opacity: 0.7; stroke-width: 0.8"/>
     </g>
     <g id="line2d_9">
      <g>
       <use xlink:href="#meaa52e4b4b" x="51.52375" y="305.106875" style="stroke: #000000; stroke-width: 0.8"/>
      </g>
     </g>
     <g id="text_6">
      <!-- 2.0 -->
      <g transform="translate(28.620625 308.906094) scale(0.1 -0.1)">
       <defs>
        <path id="DejaVuSans-32" d="M 1228 531 
L 3431 531 
L 3431 0 
L 469 0 
L 469 531 
Q 828 903 1448 1529 
Q 2069 2156 2228 2338 
Q 2531 2678 2651 2914 
Q 2772 3150 2772 3378 
Q 2772 3750 2511 3984 
Q 2250 4219 1831 4219 
Q 1534 4219 1204 4116 
Q 875 4013 500 3803 
L 500 4441 
Q 881 4594 1212 4672 
Q 1544 4750 1819 4750 
Q 2544 4750 2975 4387 
Q 3406 4025 3406 3419 
Q 3406 3131 3298 2873 
Q 3191 2616 2906 2266 
Q 2828 2175 2409 1742 
Q 1991 1309 1228 531 
z
" transform="scale(0.015625)"/>
       </defs>
       <use xlink:href="#DejaVuSans-32"/>
       <use xlink:href="#DejaVuSans-2e" x="63.623047"/>
       <use xlink:href="#DejaVuSans-30" x="95.410156"/>
      </g>
     </g>
    </g>
    <g id="ytick_4">
     <g id="line2d_10">
      <path d="M 51.52375 261.321875 
L 722.93375 261.321875 
" clip-path="url(#p4cb527ebb2)" style="fill: none; stroke-dasharray: 2.96,1.28; stroke-dashoffset: 0; stroke: #b0b0b0; stroke-opacity: 0.7; stroke-width: 0.8"/>
     </g>
     <g id="line2d_11">
      <g>
       <use xlink:href="#meaa52e4b4b" x="51.52375" y="261.321875" style="stroke: #000000; stroke-width: 0.8"/>
      </g>
     </g>
     <g id="text_7">
      <!-- 2.5 -->
      <g transform="translate(28.620625 265.121094) scale(0.1 -0.1)">
       <use xlink:href="#DejaVuSans-32"/>
       <use xlink:href="#DejaVuSans-2e" x="63.623047"/>
       <use xlink:href="#DejaVuSans-35" x="95.410156"/>
      </g>
     </g>
    </g>
    <g id="ytick_5">
     <g id="line2d_12">
      <path d="M 51.52375 217.536875 
L 722.93375 217.536875 
" clip-path="url(#p4cb527ebb2)" style="fill: none; stroke-dasharray: 2.96,1.28; stroke-dashoffset: 0; stroke: #b0b0b0; stroke-opacity: 0.7; stroke-width: 0.8"/>
     </g>
     <g id="line2d_13">
      <g>
       <use xlink:href="#meaa52e4b4b" x="51.52375" y="217.536875" style="stroke: #000000; stroke-width: 0.8"/>
      </g>
     </g>
     <g id="text_8">
      <!-- 3.0 -->
      <g transform="translate(28.620625 221.336094) scale(0.1 -0.1)">
       <defs>
        <path id="DejaVuSans-33" d="M 2597 2516 
Q 3050 2419 3304 2112 
Q 3559 1806 3559 1356 
Q 3559 666 3084 287 
Q 2609 -91 1734 -91 
Q 1441 -91 1130 -33 
Q 819 25 488 141 
L 488 750 
Q 750 597 1062 519 
Q 1375 441 1716 441 
Q 2309 441 2620 675 
Q 2931 909 2931 1356 
Q 2931 1769 2642 2001 
Q 2353 2234 1838 2234 
L 1294 2234 
L 1294 2753 
L 1863 2753 
Q 2328 2753 2575 2939 
Q 2822 3125 2822 3475 
Q 2822 3834 2567 4026 
Q 2313 4219 1838 4219 
Q 1578 4219 1281 4162 
Q 984 4106 628 3988 
L 628 4550 
Q 988 4650 1302 4700 
Q 1616 4750 1894 4750 
Q 2613 4750 3031 4423 
Q 3450 4097 3450 3541 
Q 3450 3153 3228 2886 
Q 3006 2619 2597 2516 
z
" transform="scale(0.015625)"/>
       </defs>
       <use xlink:href="#DejaVuSans-33"/>
       <use xlink:href="#DejaVuSans-2e" x="63.623047"/>
       <use xlink:href="#DejaVuSans-30" x="95.410156"/>
      </g>
     </g>
    </g>
    <g id="ytick_6">
     <g id="line2d_14">
      <path d="M 51.52375 173.751875 
L 722.93375 173.751875 
" clip-path="url(#p4cb527ebb2)" style="fill: none; stroke-dasharray: 2.96,1.28; stroke-dashoffset: 0; stroke: #b0b0b0; stroke-opacity: 0.7; stroke-width: 0.8"/>
     </g>
     <g id="line2d_15">
      <g>
       <use xlink:href="#meaa52e4b4b" x="51.52375" y="173.751875" style="stroke: #000000; stroke-width: 0.8"/>
      </g>
     </g>
     <g id="text_9">
      <!-- 3.5 -->
      <g transform="translate(28.620625 177.551094) scale(0.1 -0.1)">
       <use xlink:href="#DejaVuSans-33"/>
       <use xlink:href="#DejaVuSans-2e" x="63.623047"/>
       <use xlink:href="#DejaVuSans-35" x="95.410156"/>
      </g>
     </g>
    </g>
    <g id="ytick_7">
     <g id="line2d_16">
      <path d="M 51.52375 129.966875 
L 722.93375 129.966875 
" clip-path="url(#p4cb527ebb2)" style="fill: none; stroke-dasharray: 2.96,1.28; stroke-dashoffset: 0; stroke: #b0b0b0; stroke-opacity: 0.7; stroke-width: 0.8"/>
     </g>
     <g id="line2d_17">
      <g>
       <use xlink:href="#meaa52e4b4b" x="51.52375" y="129.966875" style="stroke: #000000; stroke-width: 0.8"/>
      </g>
     </g>
     <g id="text_10">
      <!-- 4.0 -->
      <g transform="translate(28.620625 133.766094) scale(0.1 -0.1)">
       <defs>
        <path id="DejaVuSans-34" d="M 2419 4116 
L 825 1625 
L 2419 1625 
L 2419 4116 
z
M 2253 4666 
L 3047 4666 
L 3047 1625 
L 3713 1625 
L 3713 1100 
L 3047 1100 
L 3047 0 
L 2419 0 
L 2419 1100 
L 313 1100 
L 313 1709 
L 2253 4666 
z
" transform="scale(0.015625)"/>
       </defs>
       <use xlink:href="#DejaVuSans-34"/>
       <use xlink:href="#DejaVuSans-2e" x="63.623047"/>
       <use xlink:href="#DejaVuSans-30" x="95.410156"/>
      </g>
     </g>
    </g>
    <g id="ytick_8">
     <g id="line2d_18">
      <path d="M 51.52375 86.181875 
L 722.93375 86.181875 
" clip-path="url(#p4cb527ebb2)" style="fill: none; stroke-dasharray: 2.96,1.28; stroke-dashoffset: 0; stroke: #b0b0b0; stroke-opacity: 0.7; stroke-width: 0.8"/>
     </g>
     <g id="line2d_19">
      <g>
       <use xlink:href="#meaa52e4b4b" x="51.52375" y="86.181875" style="stroke: #000000; stroke-width: 0.8"/>
      </g>
     </g>
     <g id="text_11">
      <!-- 4.5 -->
      <g transform="translate(28.620625 89.981094) scale(0.1 -0.1)">
       <use xlink:href="#DejaVuSans-34"/>
       <use xlink:href="#DejaVuSans-2e" x="63.623047"/>
       <use xlink:href="#DejaVuSans-35" x="95.410156"/>
      </g>
     </g>
    </g>
    <g id="ytick_9">
     <g id="line2d_20">
      <path d="M 51.52375 42.396875 
L 722.93375 42.396875 
" clip-path="url(#p4cb527ebb2)" style="fill: none; stroke-dasharray: 2.96,1.28; stroke-dashoffset: 0; stroke: #b0b0b0; stroke-opacity: 0.7; stroke-width: 0.8"/>
     </g>
     <g id="line2d_21">
      <g>
       <use xlink:href="#meaa52e4b4b" x="51.52375" y="42.396875" style="stroke: #000000; stroke-width: 0.8"/>
      </g>
     </g>
     <g id="text_12">
      <!-- 5.0 -->
      <g transform="translate(28.620625 46.196094) scale(0.1 -0.1)">
       <use xlink:href="#DejaVuSans-35"/>
       <use xlink:href="#DejaVuSans-2e" x="63.623047"/>
       <use xlink:href="#DejaVuSans-30" x="95.410156"/>
      </g>
     </g>
    </g>
    <g id="text_13">
     <!-- Score -->
     <g transform="translate(20.877187 242.741094) rotate(-90) scale(0.18 -0.18)">
      <defs>
       <path id="DejaVuSans-53" d="M 3425 4513 
L 3425 3897 
Q 3066 4069 2747 4153 
Q 2428 4238 2131 4238 
Q 1616 4238 1336 4038 
Q 1056 3838 1056 3469 
Q 1056 3159 1242 3001 
Q 1428 2844 1947 2747 
L 2328 2669 
Q 3034 2534 3370 2195 
Q 3706 1856 3706 1288 
Q 3706 609 3251 259 
Q 2797 -91 1919 -91 
Q 1588 -91 1214 -16 
Q 841 59 441 206 
L 441 856 
Q 825 641 1194 531 
Q 1563 422 1919 422 
Q 2459 422 2753 634 
Q 3047 847 3047 1241 
Q 3047 1584 2836 1778 
Q 2625 1972 2144 2069 
L 1759 2144 
Q 1053 2284 737 2584 
Q 422 2884 422 3419 
Q 422 4038 858 4394 
Q 1294 4750 2059 4750 
Q 2388 4750 2728 4690 
Q 3069 4631 3425 4513 
z
" transform="scale(0.015625)"/>
       <path id="DejaVuSans-63" d="M 3122 3366 
L 3122 2828 
Q 2878 2963 2633 3030 
Q 2388 3097 2138 3097 
Q 1578 3097 1268 2742 
Q 959 2388 959 1747 
Q 959 1106 1268 751 
Q 1578 397 2138 397 
Q 2388 397 2633 464 
Q 2878 531 3122 666 
L 3122 134 
Q 2881 22 2623 -34 
Q 2366 -91 2075 -91 
Q 1284 -91 818 406 
Q 353 903 353 1747 
Q 353 2603 823 3093 
Q 1294 3584 2113 3584 
Q 2378 3584 2631 3529 
Q 2884 3475 3122 3366 
z
" transform="scale(0.015625)"/>
      </defs>
      <use xlink:href="#DejaVuSans-53"/>
      <use xlink:href="#DejaVuSans-63" x="63.476562"/>
      <use xlink:href="#DejaVuSans-6f" x="118.457031"/>
      <use xlink:href="#DejaVuSans-72" x="179.638672"/>
      <use xlink:href="#DejaVuSans-65" x="218.501953"/>
     </g>
    </g>
   </g>
   <g id="line2d_22">
    <path d="M 160.612917 380.738039 
L 160.612917 114.424013 
" clip-path="url(#p4cb527ebb2)" style="fill: none; stroke: #737373; stroke-width: 1.875; stroke-linecap: square"/>
   </g>
   <g id="line2d_23">
    <path d="M 160.612917 365.456255 
L 160.612917 146.933685 
" clip-path="url(#p4cb527ebb2)" style="fill: none; stroke: #737373; stroke-width: 5.625; stroke-linecap: square"/>
   </g>
   <g id="line2d_24">
    <path d="M 160.612917 313.257947 
" clip-path="url(#p4cb527ebb2)" style="fill: none; stroke: #737373; stroke-width: 1.5; stroke-linecap: square"/>
    <defs>
     <path id="md69bda93cc" d="M 2.34375 0 
L -2.34375 -0 
" style="stroke: #ffffff; stroke-width: 1.125"/>
    </defs>
    <g clip-path="url(#p4cb527ebb2)">
     <use xlink:href="#md69bda93cc" x="160.612917" y="313.257947" style="fill: #ffffff; stroke: #ffffff; stroke-width: 1.125"/>
    </g>
   </g>
   <g id="line2d_25">
    <path d="M 166.237917 392.676875 
L 166.237917 89.842851 
" clip-path="url(#p4cb527ebb2)" style="fill: none; stroke: #737373; stroke-width: 1.875; stroke-linecap: square"/>
   </g>
   <g id="line2d_26">
    <path d="M 166.237917 321.369098 
L 166.237917 114.215435 
" clip-path="url(#p4cb527ebb2)" style="fill: none; stroke: #737373; stroke-width: 5.625; stroke-linecap: square"/>
   </g>
   <g id="line2d_27">
    <path d="M 166.237917 193.983697 
" clip-path="url(#p4cb527ebb2)" style="fill: none; stroke: #737373; stroke-width: 1.5; stroke-linecap: square"/>
    <g clip-path="url(#p4cb527ebb2)">
     <use xlink:href="#md69bda93cc" x="166.237917" y="193.983697" style="fill: #ffffff; stroke: #ffffff; stroke-width: 1.125"/>
    </g>
   </g>
   <g id="line2d_28">
    <path d="M 384.41625 386.393431 
L 384.41625 127.498265 
" clip-path="url(#p4cb527ebb2)" style="fill: none; stroke: #737373; stroke-width: 1.875; stroke-linecap: square"/>
   </g>
   <g id="line2d_29">
    <path d="M 384.41625 369.026956 
L 384.41625 162.073663 
" clip-path="url(#p4cb527ebb2)" style="fill: none; stroke: #737373; stroke-width: 5.625; stroke-linecap: square"/>
   </g>
   <g id="line2d_30">
    <path d="M 384.41625 314.996708 
" clip-path="url(#p4cb527ebb2)" style="fill: none; stroke: #737373; stroke-width: 1.5; stroke-linecap: square"/>
    <g clip-path="url(#p4cb527ebb2)">
     <use xlink:href="#md69bda93cc" x="384.41625" y="314.996708" style="fill: #ffffff; stroke: #ffffff; stroke-width: 1.125"/>
    </g>
   </g>
   <g id="line2d_31">
    <path d="M 390.04125 392.676875 
L 390.04125 82.55329 
" clip-path="url(#p4cb527ebb2)" style="fill: none; stroke: #737373; stroke-width: 1.875; stroke-linecap: square"/>
   </g>
   <g id="line2d_32">
    <path d="M 390.04125 326.672847 
L 390.04125 104.891353 
" clip-path="url(#p4cb527ebb2)" style="fill: none; stroke: #737373; stroke-width: 5.625; stroke-linecap: square"/>
   </g>
   <g id="line2d_33">
    <path d="M 390.04125 188.765508 
" clip-path="url(#p4cb527ebb2)" style="fill: none; stroke: #737373; stroke-width: 1.5; stroke-linecap: square"/>
    <g clip-path="url(#p4cb527ebb2)">
     <use xlink:href="#md69bda93cc" x="390.04125" y="188.765508" style="fill: #ffffff; stroke: #ffffff; stroke-width: 1.125"/>
    </g>
   </g>
   <g id="line2d_34">
    <path d="M 608.219583 373.281588 
L 608.219583 130.779751 
" clip-path="url(#p4cb527ebb2)" style="fill: none; stroke: #737373; stroke-width: 1.875; stroke-linecap: square"/>
   </g>
   <g id="line2d_35">
    <path d="M 608.219583 361.38538 
L 608.219583 153.485509 
" clip-path="url(#p4cb527ebb2)" style="fill: none; stroke: #737373; stroke-width: 5.625; stroke-linecap: square"/>
   </g>
   <g id="line2d_36">
    <path d="M 608.219583 296.796377 
" clip-path="url(#p4cb527ebb2)" style="fill: none; stroke: #737373; stroke-width: 1.5; stroke-linecap: square"/>
    <g clip-path="url(#p4cb527ebb2)">
     <use xlink:href="#md69bda93cc" x="608.219583" y="296.796377" style="fill: #ffffff; stroke: #ffffff; stroke-width: 1.125"/>
    </g>
   </g>
   <g id="line2d_37">
    <path d="M 613.844583 392.676875 
L 613.844583 78.374038 
" clip-path="url(#p4cb527ebb2)" style="fill: none; stroke: #737373; stroke-width: 1.875; stroke-linecap: square"/>
   </g>
   <g id="line2d_38">
    <path d="M 613.844583 317.733838 
L 613.844583 88.419618 
" clip-path="url(#p4cb527ebb2)" style="fill: none; stroke: #737373; stroke-width: 5.625; stroke-linecap: square"/>
   </g>
   <g id="line2d_39">
    <path d="M 613.844583 165.14091 
" clip-path="url(#p4cb527ebb2)" style="fill: none; stroke: #737373; stroke-width: 1.5; stroke-linecap: square"/>
    <g clip-path="url(#p4cb527ebb2)">
     <use xlink:href="#md69bda93cc" x="613.844583" y="165.14091" style="fill: #ffffff; stroke: #ffffff; stroke-width: 1.125"/>
    </g>
   </g>
   <g id="patch_5">
    <path d="M 51.52375 392.676875 
L 51.52375 42.396875 
" style="fill: none; stroke: #000000; stroke-width: 0.8; stroke-linejoin: miter; stroke-linecap: square"/>
   </g>
   <g id="patch_6">
    <path d="M 722.93375 392.676875 
L 722.93375 42.396875 
" style="fill: none; stroke: #000000; stroke-width: 0.8; stroke-linejoin: miter; stroke-linecap: square"/>
   </g>
   <g id="patch_7">
    <path d="M 51.52375 392.676875 
L 722.93375 392.676875 
" style="fill: none; stroke: #000000; stroke-width: 0.8; stroke-linejoin: miter; stroke-linecap: square"/>
   </g>
   <g id="patch_8">
    <path d="M 51.52375 42.396875 
L 722.93375 42.396875 
" style="fill: none; stroke: #000000; stroke-width: 0.8; stroke-linejoin: miter; stroke-linecap: square"/>
   </g>
   <g id="text_14">
    <!-- PESQ and ViSQOL Score Distributions by Language -->
    <g transform="translate(132.5475 22.396875) scale(0.2 -0.2)">
     <defs>
      <path id="DejaVuSans-50" d="M 1259 4147 
L 1259 2394 
L 2053 2394 
Q 2494 2394 2734 2622 
Q 2975 2850 2975 3272 
Q 2975 3691 2734 3919 
Q 2494 4147 2053 4147 
L 1259 4147 
z
M 628 4666 
L 2053 4666 
Q 2838 4666 3239 4311 
Q 3641 3956 3641 3272 
Q 3641 2581 3239 2228 
Q 2838 1875 2053 1875 
L 1259 1875 
L 1259 0 
L 628 0 
L 628 4666 
z
" transform="scale(0.015625)"/>
      <path id="DejaVuSans-51" d="M 2522 4238 
Q 1834 4238 1429 3725 
Q 1025 3213 1025 2328 
Q 1025 1447 1429 934 
Q 1834 422 2522 422 
Q 3209 422 3611 934 
Q 4013 1447 4013 2328 
Q 4013 3213 3611 3725 
Q 3209 4238 2522 4238 
z
M 3406 84 
L 4238 -825 
L 3475 -825 
L 2784 -78 
Q 2681 -84 2626 -87 
Q 2572 -91 2522 -91 
Q 1538 -91 948 567 
Q 359 1225 359 2328 
Q 359 3434 948 4092 
Q 1538 4750 2522 4750 
Q 3503 4750 4090 4092 
Q 4678 3434 4678 2328 
Q 4678 1516 4351 937 
Q 4025 359 3406 84 
z
" transform="scale(0.015625)"/>
      <path id="DejaVuSans-20" transform="scale(0.015625)"/>
      <path id="DejaVuSans-64" d="M 2906 2969 
L 2906 4863 
L 3481 4863 
L 3481 0 
L 2906 0 
L 2906 525 
Q 2725 213 2448 61 
Q 2172 -91 1784 -91 
Q 1150 -91 751 415 
Q 353 922 353 1747 
Q 353 2572 751 3078 
Q 1150 3584 1784 3584 
Q 2172 3584 2448 3432 
Q 2725 3281 2906 2969 
z
M 947 1747 
Q 947 1113 1208 752 
Q 1469 391 1925 391 
Q 2381 391 2643 752 
Q 2906 1113 2906 1747 
Q 2906 2381 2643 2742 
Q 2381 3103 1925 3103 
Q 1469 3103 1208 2742 
Q 947 2381 947 1747 
z
" transform="scale(0.015625)"/>
      <path id="DejaVuSans-56" d="M 1831 0 
L 50 4666 
L 709 4666 
L 2188 738 
L 3669 4666 
L 4325 4666 
L 2547 0 
L 1831 0 
z
" transform="scale(0.015625)"/>
      <path id="DejaVuSans-4f" d="M 2522 4238 
Q 1834 4238 1429 3725 
Q 1025 3213 1025 2328 
Q 1025 1447 1429 934 
Q 1834 422 2522 422 
Q 3209 422 3611 934 
Q 4013 1447 4013 2328 
Q 4013 3213 3611 3725 
Q 3209 4238 2522 4238 
z
M 2522 4750 
Q 3503 4750 4090 4092 
Q 4678 3434 4678 2328 
Q 4678 1225 4090 567 
Q 3503 -91 2522 -91 
Q 1538 -91 948 565 
Q 359 1222 359 2328 
Q 359 3434 948 4092 
Q 1538 4750 2522 4750 
z
" transform="scale(0.015625)"/>
      <path id="DejaVuSans-4c" d="M 628 4666 
L 1259 4666 
L 1259 531 
L 3531 531 
L 3531 0 
L 628 0 
L 628 4666 
z
" transform="scale(0.015625)"/>
      <path id="DejaVuSans-44" d="M 1259 4147 
L 1259 519 
L 2022 519 
Q 2988 519 3436 956 
Q 3884 1394 3884 2338 
Q 3884 3275 3436 3711 
Q 2988 4147 2022 4147 
L 1259 4147 
z
M 628 4666 
L 1925 4666 
Q 3281 4666 3915 4102 
Q 4550 3538 4550 2338 
Q 4550 1131 3912 565 
Q 3275 0 1925 0 
L 628 0 
L 628 4666 
z
" transform="scale(0.015625)"/>
      <path id="DejaVuSans-74" d="M 1172 4494 
L 1172 3500 
L 2356 3500 
L 2356 3053 
L 1172 3053 
L 1172 1153 
Q 1172 725 1289 603 
Q 1406 481 1766 481 
L 2356 481 
L 2356 0 
L 1766 0 
Q 1100 0 847 248 
Q 594 497 594 1153 
L 594 3053 
L 172 3053 
L 172 3500 
L 594 3500 
L 594 4494 
L 1172 4494 
z
" transform="scale(0.015625)"/>
      <path id="DejaVuSans-62" d="M 3116 1747 
Q 3116 2381 2855 2742 
Q 2594 3103 2138 3103 
Q 1681 3103 1420 2742 
Q 1159 2381 1159 1747 
Q 1159 1113 1420 752 
Q 1681 391 2138 391 
Q 2594 391 2855 752 
Q 3116 1113 3116 1747 
z
M 1159 2969 
Q 1341 3281 1617 3432 
Q 1894 3584 2278 3584 
Q 2916 3584 3314 3078 
Q 3713 2572 3713 1747 
Q 3713 922 3314 415 
Q 2916 -91 2278 -91 
Q 1894 -91 1617 61 
Q 1341 213 1159 525 
L 1159 0 
L 581 0 
L 581 4863 
L 1159 4863 
L 1159 2969 
z
" transform="scale(0.015625)"/>
      <path id="DejaVuSans-79" d="M 2059 -325 
Q 1816 -950 1584 -1140 
Q 1353 -1331 966 -1331 
L 506 -1331 
L 506 -850 
L 844 -850 
Q 1081 -850 1212 -737 
Q 1344 -625 1503 -206 
L 1606 56 
L 191 3500 
L 800 3500 
L 1894 763 
L 2988 3500 
L 3597 3500 
L 2059 -325 
z
" transform="scale(0.015625)"/>
     </defs>
     <use xlink:href="#DejaVuSans-50"/>
     <use xlink:href="#DejaVuSans-45" x="60.302734"/>
     <use xlink:href="#DejaVuSans-53" x="123.486328"/>
     <use xlink:href="#DejaVuSans-51" x="186.962891"/>
     <use xlink:href="#DejaVuSans-20" x="265.673828"/>
     <use xlink:href="#DejaVuSans-61" x="297.460938"/>
     <use xlink:href="#DejaVuSans-6e" x="358.740234"/>
     <use xlink:href="#DejaVuSans-64" x="422.119141"/>
     <use xlink:href="#DejaVuSans-20" x="485.595703"/>
     <use xlink:href="#DejaVuSans-56" x="517.382812"/>
     <use xlink:href="#DejaVuSans-69" x="583.541016"/>
     <use xlink:href="#DejaVuSans-53" x="611.324219"/>
     <use xlink:href="#DejaVuSans-51" x="674.800781"/>
     <use xlink:href="#DejaVuSans-4f" x="753.511719"/>
     <use xlink:href="#DejaVuSans-4c" x="832.222656"/>
     <use xlink:href="#DejaVuSans-20" x="887.935547"/>
     <use xlink:href="#DejaVuSans-53" x="919.722656"/>
     <use xlink:href="#DejaVuSans-63" x="983.199219"/>
     <use xlink:href="#DejaVuSans-6f" x="1038.179688"/>
     <use xlink:href="#DejaVuSans-72" x="1099.361328"/>
     <use xlink:href="#DejaVuSans-65" x="1138.224609"/>
     <use xlink:href="#DejaVuSans-20" x="1199.748047"/>
     <use xlink:href="#DejaVuSans-44" x="1231.535156"/>
     <use xlink:href="#DejaVuSans-69" x="1308.537109"/>
     <use xlink:href="#DejaVuSans-73" x="1336.320312"/>
     <use xlink:href="#DejaVuSans-74" x="1388.419922"/>
     <use xlink:href="#DejaVuSans-72" x="1427.628906"/>
     <use xlink:href="#DejaVuSans-69" x="1468.742188"/>
     <use xlink:href="#DejaVuSans-62" x="1496.525391"/>
     <use xlink:href="#DejaVuSans-75" x="1560.001953"/>
     <use xlink:href="#DejaVuSans-74" x="1623.380859"/>
     <use xlink:href="#DejaVuSans-69" x="1662.589844"/>
     <use xlink:href="#DejaVuSans-6f" x="1690.373047"/>
     <use xlink:href="#DejaVuSans-6e" x="1751.554688"/>
     <use xlink:href="#DejaVuSans-73" x="1814.933594"/>
     <use xlink:href="#DejaVuSans-20" x="1867.033203"/>
     <use xlink:href="#DejaVuSans-62" x="1898.820312"/>
     <use xlink:href="#DejaVuSans-79" x="1962.296875"/>
     <use xlink:href="#DejaVuSans-20" x="2021.476562"/>
     <use xlink:href="#DejaVuSans-4c" x="2053.263672"/>
     <use xlink:href="#DejaVuSans-61" x="2108.976562"/>
     <use xlink:href="#DejaVuSans-6e" x="2170.255859"/>
     <use xlink:href="#DejaVuSans-67" x="2233.634766"/>
     <use xlink:href="#DejaVuSans-75" x="2297.111328"/>
     <use xlink:href="#DejaVuSans-61" x="2360.490234"/>
     <use xlink:href="#DejaVuSans-67" x="2421.769531"/>
     <use xlink:href="#DejaVuSans-65" x="2485.246094"/>
    </g>
   </g>
   <g id="legend_1">
    <g id="patch_9">
     <path d="M 764.90425 102.9025 
L 847.773625 102.9025 
Q 850.173625 102.9025 850.173625 100.5025 
L 850.173625 50.796875 
Q 850.173625 48.396875 847.773625 48.396875 
L 764.90425 48.396875 
Q 762.50425 48.396875 762.50425 50.796875 
L 762.50425 100.5025 
Q 762.50425 102.9025 764.90425 102.9025 
z
" style="fill: #ffffff; opacity: 0.8; stroke: #cccccc; stroke-linejoin: miter"/>
    </g>
    <g id="text_15">
     <!-- Metric -->
     <g transform="translate(790.794406 60.795312) scale(0.1 -0.1)">
      <defs>
       <path id="DejaVuSans-4d" d="M 628 4666 
L 1569 4666 
L 2759 1491 
L 3956 4666 
L 4897 4666 
L 4897 0 
L 4281 0 
L 4281 4097 
L 3078 897 
L 2444 897 
L 1241 4097 
L 1241 0 
L 628 0 
L 628 4666 
z
" transform="scale(0.015625)"/>
      </defs>
      <use xlink:href="#DejaVuSans-4d"/>
      <use xlink:href="#DejaVuSans-65" x="86.279297"/>
      <use xlink:href="#DejaVuSans-74" x="147.802734"/>
      <use xlink:href="#DejaVuSans-72" x="187.011719"/>
      <use xlink:href="#DejaVuSans-69" x="228.125"/>
      <use xlink:href="#DejaVuSans-63" x="255.908203"/>
     </g>
    </g>
    <g id="patch_10">
     <path d="M 767.30425 77.993125 
L 791.30425 77.993125 
L 791.30425 69.593125 
L 767.30425 69.593125 
z
" style="fill: #b4d4df; stroke: #737373; stroke-width: 1.25; stroke-linejoin: miter"/>
    </g>
    <g id="text_16">
     <!-- PESQ -->
     <g transform="translate(800.90425 77.993125) scale(0.12 -0.12)">
      <use xlink:href="#DejaVuSans-50"/>
      <use xlink:href="#DejaVuSans-45" x="60.302734"/>
      <use xlink:href="#DejaVuSans-53" x="123.486328"/>
      <use xlink:href="#DejaVuSans-51" x="186.962891"/>
     </g>
    </g>
    <g id="patch_11">
     <path d="M 767.30425 95.606875 
L 791.30425 95.606875 
L 791.30425 87.206875 
L 767.30425 87.206875 
z
" style="fill: #9ce29c; stroke: #737373; stroke-width: 1.25; stroke-linejoin: miter"/>
    </g>
    <g id="text_17">
     <!-- ViSQOL -->
     <g transform="translate(800.90425 95.606875) scale(0.12 -0.12)">
      <use xlink:href="#DejaVuSans-56"/>
      <use xlink:href="#DejaVuSans-69" x="66.158203"/>
      <use xlink:href="#DejaVuSans-53" x="93.941406"/>
      <use xlink:href="#DejaVuSans-51" x="157.417969"/>
      <use xlink:href="#DejaVuSans-4f" x="236.128906"/>
      <use xlink:href="#DejaVuSans-4c" x="314.839844"/>
     </g>
    </g>
   </g>
  </g>
 </g>
 <defs>
  <clipPath id="p4cb527ebb2">
   <rect x="51.52375" y="42.396875" width="671.41" height="350.28"/>
  </clipPath>
 </defs>
</svg>
